<svg xmlns="http://www.w3.org/2000/svg" viewBox="0 0 400 250" width="400" height="250" role="img">
<defs>
<pattern id="g" width="25" height="25" patternUnits="userSpaceOnUse"><path d="M25 0H0V25" fill="none" stroke="rgba(255,255,255,.05)" stroke-width="1"/></pattern>
<radialGradient id="gl" cx="50%" cy="46%" r="62%"><stop offset="0%" stop-color="#00c8f0" stop-opacity=".16"/><stop offset="100%" stop-color="#00c8f0" stop-opacity="0"/></radialGradient>
</defs>
<style>
.ln{fill:none;stroke:#00c8f0;stroke-opacity:.8;stroke-width:1.3;stroke-linejoin:round;stroke-linecap:round}
.ln2{fill:none;stroke:#00c8f0;stroke-opacity:.34;stroke-width:1;stroke-linejoin:round;stroke-linecap:round}
.w{fill:none;stroke:rgba(255,255,255,.5);stroke-width:1.1;stroke-linejoin:round;stroke-linecap:round}
.w2{fill:none;stroke:rgba(255,255,255,.22);stroke-width:.9;stroke-linejoin:round}
.fl{fill:#00c8f0;fill-opacity:.07}
.nd{fill:#00c8f0}
.dim{fill:none;stroke:rgba(255,255,255,.26);stroke-width:.8;stroke-dasharray:3 4}
.blink{animation:bk 3.4s ease-in-out infinite}
.blink:nth-of-type(2n){animation-delay:.6s}.blink:nth-of-type(3n){animation-delay:1.2s}
@keyframes bk{0%,100%{opacity:.25}50%{opacity:1}}
.flow{stroke-dasharray:7 9;animation:fw 3.4s linear infinite}
@keyframes fw{to{stroke-dashoffset:-64}}
.float{animation:fo 9s ease-in-out infinite}
@keyframes fo{0%,100%{transform:translateY(0)}50%{transform:translateY(-6px)}}
.spin{transform-box:fill-box;transform-origin:center;animation:sp 26s linear infinite}
@keyframes sp{to{transform:rotate(360deg)}}
.pulse{animation:pl 3.2s ease-in-out infinite}
@keyframes pl{0%,100%{opacity:.4}50%{opacity:1}}
</style>
<rect width="400" height="250" fill="url(#g)"/>
<rect width="400" height="250" fill="url(#gl)"/>
<g class="float">
  <!-- merkez: izometrik yapi blogu -->
  <g>
    <path class="fl" d="M200 108 L232 126 L200 144 L168 126 Z"/><path class="ln" d="M200 108 L232 126 L200 144 L168 126 Z"/>
    <path class="ln" d="M168 126 V152 L200 170 L232 152 V126"/><path class="ln2" d="M200 144 V170"/>
  </g>
  <!-- 4 asamali dongu -->
  <g class="ln2 flow">
    <path d="M200 62 A76 76 0 0 1 276 138"/><path d="M276 138 A76 76 0 0 1 200 214"/>
    <path d="M200 214 A76 76 0 0 1 124 138"/><path d="M124 138 A76 76 0 0 1 200 62"/>
  </g>
  <!-- asama kutulari -->
  <g class="ln">
    <path d="M186 48 h28 v20 h-28 Z"/><path d="M262 124 h28 v20 h-28 Z"/>
    <path d="M186 208 h28 v20 h-28 Z"/><path d="M110 124 h28 v20 h-28 Z"/>
  </g>
  <g class="w2">
    <path d="M192 58 h16 M268 134 h16 M192 218 h16 M116 134 h16"/>
    <path d="M192 62 h10 M268 138 h10 M192 222 h10 M116 138 h10"/>
  </g>
  <circle class="nd blink" cx="200" cy="48" r="2.6"/><circle class="nd blink" cx="290" cy="134" r="2.6"/>
  <circle class="nd blink" cx="200" cy="228" r="2.6"/><circle class="nd blink" cx="110" cy="134" r="2.6"/>
</g>
</svg>
