<?xml version="1.0" encoding="UTF-8"?>
<svg id="b" data-name="Layer 2" xmlns="http://www.w3.org/2000/svg" width="54" height="54" viewBox="0 0 54 54">
  <g id="c" data-name="Surfaces">
    <g id="d" data-name="Utility Surface">
      <g id="e" data-name="Outline no shadow">
        <rect width="54" height="54" rx="9.73519" ry="9.73519" fill="#000b1d"/>
      </g>
    </g>
  </g>
  <g id="f" data-name="Outlined Mnemonics &amp;amp; Logos">
    <g id="g" data-name="St">
      <g id="h" data-name="64 svg">
        <path d="M28.45918,16.14551l-.03662,6.47559c-1.40625-1.07324-4.21826-2.25732-7.65967-2.25732-2.03516,0-2.84912.66602-2.84912,1.59106,0,.92529.62891,1.29517,3.33008,2.07227,7.10449,2.07202,8.91748,4.5144,8.91748,8.25146,0,4.92139-4.07031,7.95557-10.43457,7.95557-3.81104,0-6.69727-.92505-8.91748-2.21997l.03662-6.73462c2.29443,1.77612,5.66162,3.07129,8.84375,3.07129,2.03516,0,2.96045-.55518,2.96045-1.62817s-.9624-1.59106-3.58936-2.29419c-5.03223-1.40601-8.58447-3.14526-8.58447-7.99243,0-4.69946,3.81104-7.95557,10.28662-7.95557,2.99707,0,5.95752.55493,7.69629,1.66504Z" fill="#fff"/>
        <path d="M40.26875,20.6228h3.55273v5.14331h-3.55273v6.58667c0,1.77588.74023,2.44214,1.99805,2.44214.40723,0,.99902-.07397,1.55469-.25903l.03662,5.1062c-.81396.29614-1.70215.4812-3.36719.4812-4.21826,0-6.69775-1.99829-6.69775-6.73462v-7.62256h-2.7749v-5.14331h2.7749v-4.84717h6.47559v4.84717Z" fill="#fff"/>
      </g>
    </g>
  </g>
</svg>