<svg xmlns="http://www.w3.org/2000/svg" width="965.0002" height="1024" viewBox="0 0 965.0002 1024"><g id="ab78a160-90b1-4081-a879-9deb5b8a7abe" data-name="container - BLUE"><path id="bf9601a0-117d-4ce5-9bea-3a8f7ba2bd46" data-name="back layer" d="M185,.15,915,160h79v864H166a52,52,0,0,1-52-52V754.2921L183.4662,2.4109Z" transform="translate(-29)" fill="#0c3d91"/><path id="fb50cd95-c0ac-4616-a259-fc99bc165423" data-name="primary facade" d="M156,0H842a52,52,0,0,1,52,52V720a0,0,0,0,1,0,0H156a0,0,0,0,1,0,0V0A0,0,0,0,1,156,0Z" fill="#186bff"/><polygon id="be0220e3-a72d-489f-a4a4-2d37bcb071c8" data-name="flap" points="0 814 156 720 156 0 0 94 0 814" fill="#679ae7"/></g><g id="a4541631-b7d7-4ac8-a197-803d3b72dbc7" data-name="product subscript template"><path d="M432.6655,909.0781h-45.36L378.88,942.127h-37.584l43.2-151.2022h50.3291L480.4019,942.127H441.9536Zm-23.1123-93.3125L394.2173,880.998h31.1035Z" transform="translate(-29)" fill="#fff"/><path d="M617.9268,851.19v27.8642c0,38.8809-23.7608,63.0733-68.6895,63.0733H499.772V790.9248h54.65C596.7578,790.9248,617.9268,815.1172,617.9268,851.19Zm-37.8008-1.2959c0-21.169-8.6406-31.753-26.7842-31.753H537.5732v96.77h12.5284c20.0879,0,30.0244-10.8,30.0244-34.7764Z" transform="translate(-29)" fill="#fff"/><path d="M636.2412,894.8223h35.6406c.8633,12.0957,4.752,23.3281,27.2159,23.3281,16.8486,0,22.0322-7.56,22.0322-14.6885v-4.5361c0-10.8-5.832-13.3916-26.3526-19.8721l-20.9521-6.9121c-22.68-7.1279-32.6162-19.2236-32.6162-38.0166v-5.4c0-19.8711,16.416-41.2558,58.1045-41.2558,33.9131,0,57.2412,15.3359,58.5371,46.44H723.0742c-1.08-11.6641-7.3437-20.7363-23.5439-20.7363-16.417,0-20.7364,6.9121-20.7364,13.6083v3.0235c0,7.1289,4.9678,11.4492,22.8956,17.0644l20.5205,6.6963c25.0566,7.9922,36.7207,19.8721,36.7207,41.2569v6.48c0,24.84-21.6006,44.28-59.833,44.28C661.0811,945.583,638.1846,927.8711,636.2412,894.8223Z" transform="translate(-29)" fill="#fff"/></g><g id="f5f052d0-b6fc-44c9-8e15-c018cdfb09b0" data-name="product initial template"><path d="M611.292,472.916H491.5908l-22.23,87.211H370.1787l114.002-399.0049H616.9922L737.2637,560.127H635.8018ZM550.3008,226.6729l-40.47,172.142h82.08Z" transform="translate(-29)" fill="#fff"/></g></svg>