<svg id="b1314030-6d55-4bd7-80f6-ebb44e97fb28" data-name="collection icon - AEC" xmlns="http://www.w3.org/2000/svg" width="340.4516mm" height="310.4427mm" viewBox="0 0 965.0596 879.9952"><path d="M155.9962.0653,887.0454,162h77.9575V879.9991h-827.66c-28.7118-.0192-52.3445-23.2947-52.3445-52.0065v-71.831l70.743-755.5Z" transform="translate(0.0567 -0.0039)" fill="#0c3d91"/><path id="aea64c65-e94d-4676-a61b-fddd17482085" data-name="primary facade" d="M894.004,720.0007H155.8583V.2322L156,.0039H842.001A51.8375,51.8375,0,0,1,894.004,51.81Z" transform="translate(0.0567 -0.0039)" fill="#186bff"/><polygon id="f41d7b12-42cc-48fe-9537-8eee62299d99" data-name="flap" points="0 814.134 155.999 719.94 156.056 0 0.056 93.996 0 814.134" fill="#679ae7"/><path d="M842.0356.0039H484.5848L155.9988,203.6673V527.4538L491.7857,318.7177H826.1265a19.5325,19.5325,0,0,1,19.5458,19.5457c0,9.2591-4.115,13.3741-9.2584,16.4606L519.8413,544.4776c-20.5742,12.3456-27.7765,37.0354-27.7765,55.5528v119.97H894.0029V51.6057A51.6426,51.6426,0,0,0,842.0356.0039Z" transform="translate(0.0567 -0.0039)" fill="#ebf2fa"/><polygon points="156.056 203.663 0.056 300.484 0.056 624.46 156.056 527.45 156.056 203.663" fill="#cddff2"/></svg>