<?xml version="1.0" encoding="UTF-8"?>
<svg id="b" data-name="Layer 2" xmlns="http://www.w3.org/2000/svg" width="54" height="54" viewBox="0 0 54 54">
  <g id="c" data-name="Surfaces">
    <g id="d" data-name="DVA Surface">
      <g id="e" data-name="Outline no shadow copy 15">
        <rect width="54" height="54" rx="9.73519" ry="9.73519" fill="#00005b"/>
      </g>
    </g>
  </g>
  <g id="f" data-name="Outlined Mnemonics &amp;amp; Logos">
    <g id="g" data-name="Ae copy">
      <g id="h" data-name="64">
        <path d="M13.50704,14.96143h7.91895l8.88037,24.79175h-7.25244l-1.22119-3.77417h-9.2876l-1.22119,3.77417h-6.95654L13.50704,14.96143ZM19.9084,30.09546l-2.70117-8.32544-2.70117,8.32544h5.40234Z" fill="#99f"/>
        <path d="M49.26436,29.54053c0,.88794-.07373,1.8501-.18506,2.59009h-12.09961c.73975,1.8501,2.51611,2.73828,5.29102,2.73828,1.99805,0,3.7373-.37012,5.47656-1.18408l.07422,5.14331c-1.8877.96216-3.92285,1.29517-6.5498,1.29517-6.47559,0-10.80469-3.58936-10.80469-10.10181,0-5.95728,4.14453-9.91675,9.62061-9.91675,5.62451,0,9.17676,3.62622,9.17676,9.43579ZM36.75752,27.91235h6.4751c-.14746-1.73901-1.2207-2.96021-3.10791-2.96021-1.81299,0-2.96045.96216-3.36719,2.96021Z" fill="#99f"/>
      </g>
    </g>
  </g>
</svg>