<svg xmlns="http://www.w3.org/2000/svg" width="965.0002" height="1024" viewBox="0 0 965.0002 1024"><g id="b62dd52e-f526-44fe-8b85-07e6627424ed" data-name="container - COPPER"><path id="faf65164-60f3-4721-af7e-519784f7833f" data-name="back layer" d="M185,.15,915,160h79v864H166a52,52,0,0,1-52-52V754.2921L183.4662,2.4109Z" transform="translate(-29)" fill="#933c00"/><path id="abe84551-6483-47d7-b7a2-19ad7da76290" data-name="primary facade" d="M156,0H842a52,52,0,0,1,52,52V720a0,0,0,0,1,0,0H156a0,0,0,0,1,0,0V0A0,0,0,0,1,156,0Z" fill="#ff6b00"/><polygon id="f91ec9ff-7679-4d66-924b-0e8b500c36f3" data-name="flap" points="0 814 156 720 156 0 0 94 0 814" fill="#ff9548"/></g><g id="b5528ea6-2477-418d-b061-6bee2ca9be4c" data-name="product subscript template"><path d="M444.5669,909.0781H399.2056l-8.4239,33.0489H353.1978l43.2-151.2022h50.3292L492.3032,942.127H453.855Zm-23.1123-93.3125L406.1177,880.998h31.1054Z" transform="translate(-29)" fill="#fff"/><path d="M500.1831,894.8223h35.6411c.8633,12.0957,4.752,23.3281,27.2158,23.3281,16.8487,0,22.0323-7.56,22.0323-14.6885v-4.5361c0-10.8-5.8321-13.3916-26.3526-19.8721l-20.9521-6.9121c-22.68-7.1279-32.6167-19.2236-32.6167-38.0166v-5.4c0-19.8711,16.4165-41.2558,58.105-41.2558,33.913,0,57.2412,15.3359,58.5371,46.44H587.0166c-1.08-11.6641-7.3437-20.7363-23.5439-20.7363-16.417,0-20.7364,6.9121-20.7364,13.6083v3.0235c0,7.1289,4.9678,11.4492,22.8955,17.0644l20.52,6.6963c25.0567,7.9922,36.7207,19.8721,36.7207,41.2569v6.48c0,24.84-21.6005,44.28-59.833,44.28C525.0234,945.583,502.1265,927.8711,500.1831,894.8223Z" transform="translate(-29)" fill="#fff"/><path d="M753.7236,818.1406H714.1953V942.127H676.3945V818.1406H636.4336V790.9248h117.29Z" transform="translate(-29)" fill="#fff"/></g><g id="b5c115ac-c08b-4d71-b2d4-ab4710e6aaf7" data-name="product initial template"><path d="M611.292,472.916H491.5908l-22.23,87.211H370.1787l114.002-399.0049H616.9922L737.2637,560.127H635.8018ZM550.3008,226.6729l-40.47,172.142h82.08Z" transform="translate(-29)" fill="#fff"/></g></svg>