<svg xmlns="http://www.w3.org/2000/svg" width="965.0002" height="1024" viewBox="0 0 965.0002 1024"><g id="bb5696b0-44e9-44bf-a7cf-51bce7c341d1" data-name="container - RED"><path id="f62bde2b-cb30-4e7f-85c0-06ca700ef539" data-name="back layer" d="M185,.15,915,160h79v864H166a52,52,0,0,1-52-52V754.2921L183.4662,2.4109Z" transform="translate(-29)" fill="#78082a"/><path id="b402631f-a263-453c-af9c-d48da777da1f" data-name="primary facade" d="M156,0H842a52,52,0,0,1,52,52V720a0,0,0,0,1,0,0H156a0,0,0,0,1,0,0V0A0,0,0,0,1,156,0Z" fill="#e51050"/><polygon id="e0de6c19-a58d-4db2-a050-0c8fee5864de" data-name="flap" points="0 814 156 720 156 0 0 94 0 814" fill="#e85984"/></g><g id="eba9ba5b-fb4e-402e-bcae-6895e2249c3f" data-name="product subscript template"><path d="M517.2539,790.9248,494.1411,942.127H442.9478l-18.792-118.37-19.44,118.37H353.3071L328.8979,790.9248h37.585l14.4727,117.9375,20.3037-117.7217v-.2158h46.6572l20.0879,117.9375L482.26,790.9248Z" transform="translate(-29)" fill="#fff"/><path d="M576.4111,818.1406v33.9131H628.252v27H576.4111v35.209h56.377V942.127H538.61V790.9248h94.1777v27.2158Z" transform="translate(-29)" fill="#fff"/><path d="M773.2725,893.0938V901.95c0,23.7607-23.9766,40.1768-60.9131,40.1768H659.2227V790.9248h52.4892c34.7764,0,56.5928,14.04,56.5928,37.8v9.7207c0,15.12-11.4483,22.0322-19.44,24.625h-.2159C757.9365,865.23,773.2725,873.4375,773.2725,893.0938Zm-76.2491-77.3282V853.998H712.792c11.0156,0,17.7119-4.9687,17.7119-14.9042v-7.7764c0-10.8-6.9121-15.5518-19.8721-15.5518Zm38.4483,76.2481c0-9.72-6.48-15.5518-20.9522-15.5518H697.0234v40.8242h14.6885c14.4717,0,23.76-5.3994,23.76-17.9277Z" transform="translate(-29)" fill="#fff"/></g><g id="f61973f1-88a5-4701-9c53-29486c7037dd" data-name="product initial template"><path d="M611.292,472.916H491.5908l-22.23,87.211H370.1787l114.002-399.0049H616.9922L737.2637,560.127H635.8018ZM550.3008,226.6729l-40.47,172.142h82.08Z" transform="translate(-29)" fill="#fff"/></g></svg>