<svg xmlns="http://www.w3.org/2000/svg" width="965.0002" height="1024" viewBox="0 0 965.0002 1024"><g id="b6022eff-b046-43d1-b0b0-7fdb836cad83" data-name="container - GRAY"><path id="a2c24681-708c-4d59-9902-48d1ccbb6eec" data-name="back layer" d="M185,.15,915,160h79v864H166a52,52,0,0,1-52-52V754.2921L183.4662,2.4109Z" transform="translate(-29)" fill="#3a3a3a"/><path id="f400d726-be88-480a-889c-d2a3ec5ded23" data-name="primary facade" d="M156,0H842a52,52,0,0,1,52,52V720a0,0,0,0,1,0,0H156a0,0,0,0,1,0,0V0A0,0,0,0,1,156,0Z" fill="#777676"/><polygon id="b4a0c93b-6ffc-4f94-a53a-2beade4c76a0" data-name="flap" points="0 814 156 720 156 0 0 94 0 814" fill="#d8d8d8"/></g><g id="b25c997e-baed-4259-8ed3-ba7fe0c0f975" data-name="product subscript template"><path d="M478.1782,851.19v27.8642c0,38.8809-23.7607,63.0733-68.6894,63.0733H360.0239V790.9248h54.6494C457.0093,790.9248,478.1782,815.1172,478.1782,851.19Zm-37.8008-1.2959c0-21.169-8.6406-31.753-26.7841-31.753H397.8247v96.77H410.353c20.0879,0,30.0244-10.8,30.0244-34.7764Z" transform="translate(-29)" fill="#fff"/><path d="M623.373,919.4463V942.127c-3.8886,2.16-9.288,3.24-15.12,3.24-13.1767,0-23.5449-3.8887-31.7529-20.9522l-18.1445-36.7207H541.7236V942.127H503.9224V790.9248h57.2417c32.832,0,54.8642,15.7686,54.8642,41.04v13.6084c0,14.9043-9.2881,26.5684-23.9756,33.9131L608.9,911.2383c2.8086,5.6162,6.4805,8.208,12.7441,8.208Zm-81.6494-56.5928H558.14c12.0967,0,20.0889-6.2637,20.0889-17.9277V834.125c0-11.4473-8.208-17.28-20.0889-17.28h-16.416Z" transform="translate(-29)" fill="#fff"/><path d="M628.7471,790.9248h39.0957l31.3213,121.6094,28.5117-121.6094h38.2334L723.7881,942.127H673.459Z" transform="translate(-29)" fill="#fff"/></g><g id="ef48e935-9de9-479d-803e-da934d87fc27" data-name="product initial template"><path d="M719.0205,320.1538v73.5308c0,102.6015-62.7,166.4424-181.2617,166.4424H407.2266V161.1221H551.4385C663.16,161.1221,719.0205,224.9629,719.0205,320.1538Zm-99.751-3.42c0-55.8609-22.8007-83.791-70.6806-83.791H506.9775V488.3062h33.0606c53.0107,0,79.2314-28.5,79.2314-91.7715Z" transform="translate(-29)" fill="#fff"/></g></svg>