<svg xmlns="http://www.w3.org/2000/svg" width="965.0002" height="1024" viewBox="0 0 965.0002 1024"><g id="eb31ff70-0157-4802-bfdc-f652492a741b" data-name="container - BLUE"><path id="e47cc09f-d422-4385-a4cd-b547e194641c" data-name="back layer" d="M185,.15,915,160h79v864H166a52,52,0,0,1-52-52V754.2921L183.4662,2.4109Z" transform="translate(-29)" fill="#0c3d91"/><path id="e8cb5eec-f807-47de-a875-5e1ffa3d8d60" data-name="primary facade" d="M156,0H842a52,52,0,0,1,52,52V720a0,0,0,0,1,0,0H156a0,0,0,0,1,0,0V0A0,0,0,0,1,156,0Z" fill="#186bff"/><polygon id="f98ec0cf-b425-4a0e-bf2e-8ba0045787d1" data-name="flap" points="0 814 156 720 156 0 0 94 0 814" fill="#679ae7"/></g><g id="e363b213-4c66-4543-83e5-d1449958c81b" data-name="product subscript template"><path d="M471.9771,851.19v27.8642c0,38.8809-23.7608,63.0733-68.69,63.0733H353.8228V790.9248h54.6494C450.8081,790.9248,471.9771,815.1172,471.9771,851.19Zm-37.8008-1.2959c0-21.169-8.6407-31.753-26.7842-31.753H391.6235v96.77h12.5284c20.0878,0,30.0244-10.8,30.0244-34.7764Z" transform="translate(-29)" fill="#fff"/><path d="M623.7822,849.2461v34.7754c0,36.5049-22.4648,61.5615-65.4492,61.5615-42.1211,0-65.2339-25.0566-65.2339-61.5615V849.2461c0-36.7207,22.897-61.7773,65.2339-61.7773C601.3174,787.4688,623.7822,812.5254,623.7822,849.2461ZM530.9,849.0293v34.7773c0,22.8955,9.2881,34.7764,27.4326,34.7764s27.4326-11.8809,27.4326-34.7764V849.0293c0-22.68-9.2881-34.5605-27.4326-34.5605S530.9,826.35,530.9,849.0293Z" transform="translate(-29)" fill="#fff"/><path d="M645.3135,887.4785V845.5732c0-34.5605,21.8164-58.1044,61.5615-58.1044,34.7764,0,56.5928,16.416,57.6729,48.1679H729.7705c-.8633-13.1758-7.9922-20.9512-22.4639-20.9512-15.12,0-23.7607,9.9356-23.7607,26.1358v51.4092c0,16.2,8.4248,26.1357,23.5449,26.1357,15.5518,0,22.2481-7.9922,22.8965-22.4639h35.208c-2.16,33.9122-22.8965,49.6807-59.1846,49.6807C668.4258,945.583,645.3135,922.0391,645.3135,887.4785Z" transform="translate(-29)" fill="#fff"/></g><g id="fc34af16-305b-4665-b31f-bef88ee63951" data-name="product initial template"><path d="M719.0205,320.1538v73.5308c0,102.6015-62.7,166.4424-181.2617,166.4424H407.2266V161.1221H551.4385C663.16,161.1221,719.0205,224.9629,719.0205,320.1538Zm-99.751-3.42c0-55.8609-22.8007-83.791-70.6806-83.791H506.9775V488.3062h33.0606c53.0107,0,79.2314-28.5,79.2314-91.7715Z" transform="translate(-29)" fill="#fff"/></g></svg>