<?xml version="1.0" encoding="UTF-8"?><svg xmlns="http://www.w3.org/2000/svg" width="965.0002" height="1024" viewBox="0 0 965.0002 1024"><g id="a"><path id="b" d="M156,.15L886,160h79.0002v864H137.0002c-28.7188,0-52-23.2812-52-52v-217.7079L154.4662,2.4109l1.5338-2.2609Z" fill="#0c3d91"/><path id="c" d="M156,0H842.0002c28.6996,0,52,23.3004,52,52V720H156V0h0Z" fill="#186bff"/><polygon id="d" points="0 814 156 720 156 0 0 94 0 814" fill="#679ae7"/></g><g id="e"><g><path d="M440.9907,834.5566v14.6895c0,28.2959-23.9766,44.4961-59.4014,44.4961h-15.1201v48.3848h-37.8008v-151.2021h56.377c33.9121,0,55.9453,15.7686,55.9453,43.6318Zm-37.8008,2.1602c0-12.96-8.208-19.0078-20.9521-19.0078h-15.7686v49.249h13.1758c14.2568,0,23.5449-5.833,23.5449-20.5205v-9.7207Z" fill="#fff"/><path d="M582.2324,919.4463v22.6807c-3.8887,2.1602-9.2881,3.2402-15.1201,3.2402-13.1768,0-23.5449-3.8887-31.7529-20.9521l-18.1445-36.7207h-16.6318v54.4326h-37.8013v-151.2021h57.2417c32.832,0,54.8643,15.7686,54.8643,41.04v13.6084c0,14.9043-9.2881,26.5684-23.9756,33.9131l16.8477,31.752c2.8086,5.6162,6.4805,8.208,12.7441,8.208h1.7285Zm-81.6494-56.5928h16.416c12.0967,0,20.0889-6.2637,20.0889-17.9277v-10.8008c0-11.4473-8.208-17.2803-20.0889-17.2803h-16.416v46.0088Z" fill="#fff"/><path d="M728.2461,849.2461v34.7754c0,36.5049-22.4648,61.5615-65.4492,61.5615-42.1211,0-65.2334-25.0566-65.2334-61.5615v-34.7754c0-36.7207,22.8965-61.7773,65.2334-61.7773,42.9844,0,65.4492,25.0566,65.4492,61.7773Zm-92.8818-.2168v34.7773c0,22.8955,9.2881,34.7764,27.4326,34.7764s27.4326-11.8809,27.4326-34.7764v-34.7773c0-22.6797-9.2891-34.5605-27.4326-34.5605s-27.4326,11.8809-27.4326,34.5605Z" fill="#fff"/></g></g><g id="f"><path d="M372.2412,415.915v-110.5815c0-91.2012,57.5713-153.3315,162.4521-153.3315,91.7715,0,149.3418,43.3203,152.1924,127.1113h-91.7715c-2.2803-34.7705-21.0898-55.2905-59.2812-55.2905-39.9004,0-62.7002,26.2202-62.7002,68.9707v135.6616c0,42.751,22.2305,68.9712,62.1309,68.9712,41.04,0,58.7109-21.0903,60.4209-59.2808h92.9111c-5.7002,89.4912-60.4209,131.1016-156.1826,131.1016-99.1807,0-160.1719-62.1309-160.1719-153.332Z" fill="#fff"/></g></svg>