<svg xmlns="http://www.w3.org/2000/svg" width="965.0002" height="1024" viewBox="0 0 965.0002 1024"><g id="bd09e447-6487-43c9-9afb-0cb3bdc0143d" data-name="container - PLUM"><path id="bdd43206-24bf-4a38-8876-5cf4901f918e" data-name="back layer" d="M185,.15,915,160h79v864H166a52,52,0,0,1-52-52V754.2921L183.4662,2.4109Z" transform="translate(-29)" fill="#67074c"/><path id="e37d3952-e002-4dbb-b585-5ce48c9913b8" data-name="primary facade" d="M156,0H842a52,52,0,0,1,52,52V720a0,0,0,0,1,0,0H156a0,0,0,0,1,0,0V0A0,0,0,0,1,156,0Z" fill="#a90c7c"/><polygon id="f201ae0f-b43b-4f6b-a9f4-313b113af5a6" data-name="flap" points="0 814 156 720 156 0 0 94 0 814" fill="#d44fae"/></g><g id="b653b68f-5a24-4bd5-ba2f-e218c118b1c1" data-name="product subscript template"><path d="M487.6606,919.4463V942.127c-3.8886,2.16-9.288,3.24-15.12,3.24-13.1767,0-23.5449-3.8887-31.7529-20.9522l-18.1445-36.7207H406.0112V942.127H368.21V790.9248h57.2413c32.832,0,54.8642,15.7686,54.8642,41.04v13.6084c0,14.9043-9.2881,26.5684-23.9756,33.9131l16.8477,31.752c2.8086,5.6162,6.4805,8.208,12.7441,8.208Zm-81.6494-56.5928h16.416c12.0967,0,20.0889-6.2637,20.0889-17.9277V834.125c0-11.4473-8.209-17.28-20.0889-17.28h-16.416Z" transform="translate(-29)" fill="#fff"/><path d="M547.9424,818.1406v33.9131h51.8408v27H547.9424v35.209h56.3769V942.127H510.1411V790.9248h94.1782v27.2158Z" transform="translate(-29)" fill="#fff"/><path d="M620.5586,790.9248h39.0967l31.32,121.6094,28.5117-121.6094h38.2334L715.6,942.127H665.2705Z" transform="translate(-29)" fill="#fff"/></g><g id="ae25d625-a7a2-48e6-bf97-b5263391d832" data-name="product initial template"><path d="M719.0205,320.1538v73.5308c0,102.6015-62.7,166.4424-181.2617,166.4424H407.2266V161.1221H551.4385C663.16,161.1221,719.0205,224.9629,719.0205,320.1538Zm-99.751-3.42c0-55.8609-22.8007-83.791-70.6806-83.791H506.9775V488.3062h33.0606c53.0107,0,79.2314-28.5,79.2314-91.7715Z" transform="translate(-29)" fill="#fff"/></g></svg>