<svg xmlns="http://www.w3.org/2000/svg" viewBox="0 0 965.0002 1024"><g id="e1ed9eaa-a8ce-449d-938e-b915cd1c2225" data-name="container - GRAY"><path id="e9a0e144-cc55-4eca-8dc5-5547e3150e11" data-name="back layer" d="M185,.15,915,160h79v864H166a52,52,0,0,1-52-52V754.2921L183.4662,2.4109Z" transform="translate(-29)" fill="#3a3a3a"/><path id="b3b80336-dfcd-41b3-8a74-751fbf072b95" data-name="primary facade" d="M156,0H842a52,52,0,0,1,52,52V720a0,0,0,0,1,0,0H156a0,0,0,0,1,0,0V0A0,0,0,0,1,156,0Z" fill="#777676"/><polygon id="a9967bdc-c9dc-4b72-aeec-dfccab82af6e" data-name="flap" points="0 814 156 720 156 0 0 94 0 814" fill="#d8d8d8"/></g><g id="b8e72c36-ca24-412d-a81f-4b9d8adb16de" data-name="product subscript template"><path d="M486.1353,851.19v27.8642c0,38.8809-23.7608,63.0733-68.6895,63.0733H367.981V790.9248H422.63C464.9663,790.9248,486.1353,815.1172,486.1353,851.19Zm-37.8008-1.2959c0-21.169-8.6407-31.753-26.7842-31.753H405.7817v96.77H418.31c20.0878,0,30.0244-10.8,30.0244-34.7764Z" transform="translate(-29)" fill="#fff"/><path d="M616.7715,818.1406H577.2432V942.127H539.4424V818.1406H499.481V790.9248h117.29Z" transform="translate(-29)" fill="#fff"/><path d="M631.1543,887.4785V845.5732c0-34.5605,21.8164-58.1044,61.5615-58.1044,34.7764,0,56.5928,16.416,57.6729,48.1679H715.6113c-.8633-13.1758-7.9912-20.9512-22.4638-20.9512-15.12,0-23.7608,9.9356-23.7608,26.1358v51.4092c0,16.2,8.4248,26.1357,23.5449,26.1357,15.5518,0,22.2481-7.9922,22.8965-22.4639h35.208c-2.16,33.9122-22.8965,49.6807-59.1845,49.6807C654.2666,945.583,631.1543,922.0391,631.1543,887.4785Z" transform="translate(-29)" fill="#fff"/></g><g id="b1769af1-5b48-4389-bf00-f7ddfd3be9a8" data-name="product initial template"><path d="M719.0205,320.1538v73.5308c0,102.6015-62.7,166.4424-181.2617,166.4424H407.2266V161.1221H551.4385C663.16,161.1221,719.0205,224.9629,719.0205,320.1538Zm-99.751-3.42c0-55.8609-22.8007-83.791-70.6806-83.791H506.9775V488.3062h33.0606c53.0107,0,79.2314-28.5,79.2314-91.7715Z" transform="translate(-29)" fill="#fff"/></g></svg>