<svg viewBox="0 0 965 880" fill="none" xmlns="http://www.w3.org/2000/svg">
<path d="M85 160H965V880H137C108.281 880 85 856.719 85 828V160Z" fill="#78082A"/>
<path d="M156 0H842C870.719 0 894 23.2812 894 52V720H156V0Z" fill="#E51050"/>
<path d="M0 94L156 0V720L0 814V94Z" fill="#E85984"/>
<path d="M522.065 159.999C634.065 159.999 690.065 223.999 690.065 319.428V393.142C690.065 496 627.208 560 508.351 560H454.065H377.493V159.999H477.493H522.065ZM590.065 396V315.999C590.065 259.999 567.208 231.999 519.208 231.999H477.493V488H510.636C563.779 488 590.065 459.428 590.065 396Z" fill="white"/>
</svg>
