<svg xmlns="http://www.w3.org/2000/svg" width="965.0002" height="1024" viewBox="0 0 965.0002 1024"><g id="e2781e3a-7680-48ea-8be7-561836e77b12" data-name="container - BRASS"><path id="b01a82a6-78cb-4d39-958e-f38bc08f2444" data-name="back layer" d="M185,.15,915,160h79v864H166a52,52,0,0,1-52-52V754.2921L183.4662,2.4109Z" transform="translate(-29)" fill="#705a01"/><path id="ac872265-d7b7-466e-94c6-3757fbcb72c8" data-name="primary facade" d="M156,0H842a52,52,0,0,1,52,52V720a0,0,0,0,1,0,0H156a0,0,0,0,1,0,0V0A0,0,0,0,1,156,0Z" fill="#dbae03"/><polygon id="e50b5389-f927-4b9e-a8d7-822704432c65" data-name="flap" points="0 814 156 720 156 0 0 94 0 814" fill="#eacd5d"/></g><g id="e7bed8d0-5e21-43b2-b1b6-f592795ced6d" data-name="product subscript template"><path d="M400.9878,818.1406v36.0723h49.6807V880.998H400.9878v61.129H363.187V790.9248h96.5537v27.2158Z" transform="translate(-29)" fill="#fff"/><path d="M598.4111,851.19v27.8642c0,38.8809-23.7607,63.0733-68.6894,63.0733H480.2563V790.9248h54.65C577.2422,790.9248,598.4111,815.1172,598.4111,851.19ZM560.61,849.8936c0-21.169-8.6407-31.753-26.7842-31.753H518.0576v96.77h12.5283c20.0879,0,30.0245-10.8,30.0245-34.7764Z" transform="translate(-29)" fill="#fff"/><path d="M744.8154,790.9248V942.127H711.7666l-1.9443-10.8c-8.64,7.7754-20.9522,14.2559-38.6641,14.2559-31.5371,0-49.4648-22.248-49.4648-52.4892V790.9248h37.8007V894.8223c0,14.9043,6.48,23.7607,22.2481,23.7607,11.2324,0,19.2246-4.32,25.2724-11.0166V790.9248Z" transform="translate(-29)" fill="#fff"/></g><g id="fc495755-c20c-4828-99c4-64d5905dd2bf" data-name="product initial template"><path d="M546.0254,232.9429v95.1909H677.1279v70.6811H546.0254V560.127h-99.751V161.1221h254.793v71.8208Z" transform="translate(-29)" fill="#fff"/></g></svg>