<svg xmlns="http://www.w3.org/2000/svg" width="965.0002" height="1024" viewBox="0 0 965.0002 1024"><g id="ffd74ee8-8033-49bd-8df0-049301f69013" data-name="container - SILVER"><path id="aa8335f1-0dc2-4237-8bb0-d5e9dd26e366" data-name="back layer" d="M185,.15,915,160h79v864H166a52,52,0,0,1-52-52V754.2921L183.4662,2.4109Z" transform="translate(-29)" fill="#5d594a"/><path id="e9e4747a-bcdf-45df-8fb8-cb2bc4887846" data-name="primary facade" d="M156,0H842a52,52,0,0,1,52,52V720a0,0,0,0,1,0,0H156a0,0,0,0,1,0,0V0A0,0,0,0,1,156,0Z" fill="#a69e84"/><polygon id="fbb5039d-1dd8-46fc-932b-cee0c21c7e58" data-name="flap" points="0 814 156 720 156 0 0 94 0 814" fill="#c3bda2"/></g><g id="ae34e78f-e364-467e-9d4f-ed14dae560ea" data-name="product subscript template"><path d="M329.0161,887.4785V845.5732c0-34.5605,21.8164-58.1044,61.5615-58.1044,34.7764,0,56.5928,16.416,57.6729,48.1679H413.4731c-.8632-13.1758-7.9921-20.9512-22.4638-20.9512-15.12,0-23.7608,9.9356-23.7608,26.1358v51.4092c0,16.2,8.4248,26.1357,23.545,26.1357,15.5517,0,22.248-7.9922,22.8964-22.4639h35.208c-2.16,33.9122-22.8964,49.6807-59.1845,49.6807C352.1284,945.583,329.0161,922.0391,329.0161,887.4785Z" transform="translate(-29)" fill="#fff"/><path d="M549.0137,909.0781H503.6528L495.228,942.127H457.644l43.2-151.2022h50.33L596.75,942.127H558.3018Zm-23.1123-93.3125L510.5649,880.998h31.104Z" transform="translate(-29)" fill="#fff"/><path d="M772.0752,790.9248V942.127H736.2178V844.4932l-25.2725,97.4179v.2159h-35.64L648.5205,840.6055V942.127h-32.4V790.9248h47.52l30.4571,121.3936,31.9687-120.962-.2168-.4316Z" transform="translate(-29)" fill="#fff"/></g><g id="bb697246-f882-43e3-8618-2143825958c7" data-name="product initial template"><path d="M546.0254,232.9429v95.1909H677.1279v70.6811H546.0254V560.127h-99.751V161.1221h254.793v71.8208Z" transform="translate(-29)" fill="#fff"/></g></svg>