<svg xmlns="http://www.w3.org/2000/svg" width="965.0002" height="1024" viewBox="0 0 965.0002 1024"><g id="e3aeb95e-1d48-4c9d-8931-716238cf3734" data-name="container - LIGHT BLUE"><path id="b81303d4-4289-46b1-a397-68802b2ad5b9" data-name="back layer" d="M185,.15,915,160h79v864H166a52,52,0,0,1-52-52V754.2921L183.4662,2.4109Z" transform="translate(-29)" fill="#36697f"/><path id="be7ac25b-1b4e-4eb0-88dc-d5746b115961" data-name="primary facade" d="M156,0H842a52,52,0,0,1,52,52V720a0,0,0,0,1,0,0H156a0,0,0,0,1,0,0V0A0,0,0,0,1,156,0Z" fill="#37a5cc"/><polygon id="b9a047b6-667a-4cdf-b404-9f075e433373" data-name="flap" points="0 814 156 720 156 0 0 94 0 814" fill="#7dc6dd"/></g><g id="eb8bfa59-1eee-4fd6-9a31-f8bfb8d50692" data-name="product subscript template"><path d="M398.1157,818.1406v36.0723h49.6807V880.998H398.1157v61.129H360.3149V790.9248h96.5538v27.2158Z" transform="translate(-29)" fill="#fff"/><path d="M571.9941,913.3984V942.127h-94.61V790.9248h37.8012V913.3984Z" transform="translate(-29)" fill="#fff"/><path d="M747.6885,790.9248V942.127H711.8311V844.4932l-25.2725,97.4179v.2159h-35.64L624.1338,840.6055V942.127h-32.4V790.9248h47.5205l30.457,121.3936L701.68,791.3564l-.2168-.4316Z" transform="translate(-29)" fill="#fff"/></g><g id="f01a27ce-d858-472c-b2b1-8fb50416f318" data-name="product initial template"><path d="M546.0254,232.9429v95.1909H677.1279v70.6811H546.0254V560.127h-99.751V161.1221h254.793v71.8208Z" transform="translate(-29)" fill="#fff"/></g></svg>