<?xml version="1.0" encoding="UTF-8"?><svg xmlns="http://www.w3.org/2000/svg" width="965.0002" height="1024" viewBox="0 0 965.0002 1024"><g id="uuid-a71bc4d6-1438-4302-9be7-a0a54ce3e4ad"><path id="uuid-e47e7626-6cb4-4a57-adb2-261b8a16bda5" d="m156,.15l730,159.85h79.0002v864H137.0002c-28.7188,0-52-23.2812-52-52v-217.7079L154.4662,2.4109l1.5338-2.2609Z" fill="#126328"/><path id="uuid-12a0602c-4f20-4f38-9b0c-956c540775c3" d="m156,0h686.0002c28.6996,0,52,23.3004,52,52v668H156V0h0Z" fill="#038c4a"/><polygon id="uuid-98952f15-05ff-4689-9e2b-e8127cc0942d" points="0 814 156 720 156 0 0 94 0 814" fill="#53ad72"/></g><g id="uuid-bcc1092f-bf0e-45f4-8523-474ec1896128"><path d="m451.7905,834.5566v14.6895c0,28.2959-23.9766,44.4961-59.4014,44.4961h-15.1201v48.3848h-37.8008v-151.2021h56.377c33.9131,0,55.9453,15.7686,55.9453,43.6318Zm-37.8008,2.1602c0-12.96-8.208-19.0078-20.9521-19.0078h-15.7686v49.249h13.1758c14.2568,0,23.5449-5.833,23.5449-20.5205v-9.7207Z" fill="#fff"/><path d="m582.2529,818.1406h-39.5283v123.9863h-37.8008v-123.9863h-39.9614v-27.2158h117.2905v27.2158Z" fill="#fff"/><path d="m721.3359,919.4463v22.6807c-3.8887,2.1602-9.2881,3.2402-15.1201,3.2402-13.1768,0-23.5449-3.8887-31.7529-20.9521l-18.1445-36.7207h-16.6318v54.4326h-37.8008v-151.2021h57.2412c32.832,0,54.8643,15.7686,54.8643,41.04v13.6084c0,14.9043-9.2881,26.5684-23.9756,33.9131l16.8477,31.752c2.8086,5.6162,6.4805,8.208,12.7441,8.208h1.7285Zm-81.6494-56.5928h16.416c12.0967,0,20.0889-6.2637,20.0889-17.9277v-10.8008c0-11.4473-8.208-17.2803-20.0889-17.2803h-16.416v46.0088Z" fill="#fff"/></g><g id="uuid-c0ed2921-3f5b-4313-9d26-91322f916e6e"><path d="m517.0254,232.9429v95.1909h131.1025v70.6812h-131.1025v161.312h-99.751V161.1221h254.793v71.8208h-155.042Z" fill="#fff"/></g></svg>