<svg width="965" height="1024" viewBox="0 0 965 1024" fill="none" xmlns="http://www.w3.org/2000/svg">
<path d="M85 160H965V1024H137C108.281 1024 85 1000.72 85 972V160Z" fill="#333339"/>
<path d="M156 0H842C870.719 0 894 23.2812 894 52V720H156V0Z" fill="#515E7F"/>
<path d="M0 94L156 0V720L0 814V94Z" fill="#7187C3"/>
<path d="M674.789 790.8H712.589V942H679.541L677.597 931.2C668.957 938.976 656.645 945.456 638.933 945.456C607.397 945.456 589.469 923.208 589.469 892.968V790.8H627.269V894.696C627.269 909.6 633.749 918.456 649.517 918.456C660.749 918.456 668.741 914.136 674.789 907.44V790.8Z" fill="white"/>
<path d="M573.136 790.8V818.016H533.608V942H495.808V818.016H455.848V790.8H533.608H573.136Z" fill="white"/>
<path d="M388.25 945.456C350.234 945.456 327.338 927.744 325.394 894.696H361.034C361.898 906.792 365.786 918.024 388.25 918.024C405.098 918.024 410.282 910.464 410.282 903.336V898.8C410.282 888 404.45 885.408 383.93 878.928L362.978 872.016C340.298 864.888 330.362 852.792 330.362 834V828.6C330.362 808.728 346.778 787.344 388.466 787.344C422.378 787.344 445.706 802.68 447.002 833.784H412.226C411.146 822.12 404.882 813.048 388.682 813.048C372.266 813.048 367.946 819.96 367.946 826.656V829.68C367.946 836.808 372.914 841.128 390.842 846.744L411.362 853.44C436.418 861.432 448.082 873.312 448.082 894.696V901.176C448.082 926.016 426.482 945.456 388.25 945.456Z" fill="white"/>
<path d="M671.985 231.999H516.556V327.428H647.985V398.285H516.556V560H416.556V159.999H516.556H671.985V231.999Z" fill="white"/>
</svg>
