<svg xmlns="http://www.w3.org/2000/svg" width="965.0002" height="1024" viewBox="0 0 965.0002 1024"><g id="b288ad1b-f182-4dc8-9ffd-af303f358c24" data-name="container - COPPER"><path id="a4a1801e-36f0-4636-9c28-b76fac388635" data-name="back layer" d="M185,.15,915,160h79v864H166a52,52,0,0,1-52-52V754.2921L183.4662,2.4109Z" transform="translate(-29)" fill="#933c00"/><path id="a8c8cc64-6df5-438a-84df-aa64a2daf2f2" data-name="primary facade" d="M156,0H842a52,52,0,0,1,52,52V720a0,0,0,0,1,0,0H156a0,0,0,0,1,0,0V0A0,0,0,0,1,156,0Z" fill="#ff6b00"/><polygon id="a29b2397-4969-454a-aa74-e9765d78b608" data-name="flap" points="0 814 156 720 156 0 0 94 0 814" fill="#ff9548"/></g><g id="b2d4f4e1-83b3-4ab6-b401-a81ff6dcc42c" data-name="product subscript template"><path d="M483.61,790.9248V942.127H447.7524V844.4932L422.48,941.9111v.2159H386.84L360.0552,840.6055V942.127h-32.4V790.9248h47.52l30.457,121.3936,31.9688-120.962-.2168-.4316Z" transform="translate(-29)" fill="#fff"/><path d="M637.1631,790.9248V942.127H596.3389L547.09,837.7969v104.33H514.9053V790.9248h44.2812l45.792,93.7451V790.9248Z" transform="translate(-29)" fill="#fff"/><path d="M787.0449,855.9414V942.127H758.1006l-2.8076-10.3682a55.9387,55.9387,0,0,1-37.3692,13.8242c-30.0244,0-54.2168-20.7363-54.2168-54.001V848.166c0-37.3691,22.8965-60.6972,64.1534-60.6972,33.0488,0,56.3769,15.7675,58.7529,46.44H751.8369c-1.08-11.2315-7.7764-19.44-23.3291-19.44-17.7119,0-27,9.5039-27,29.8085v47.7364c0,16.417,8.4238,26.3525,24.1924,26.3525,11.4482,0,19.8721-4.7519,25.2725-11.0156l.2158-26.7842H725.916v-24.625Z" transform="translate(-29)" fill="#fff"/></g><g id="bbe28e1e-ac14-4e55-bc1e-ebefbabd8a77" data-name="product initial template"><path d="M546.0254,232.9429v95.1909H677.1279v70.6811H546.0254V560.127h-99.751V161.1221h254.793v71.8208Z" transform="translate(-29)" fill="#fff"/></g></svg>