<?xml version="1.0" encoding="UTF-8"?><svg xmlns="http://www.w3.org/2000/svg" width="965.0002" height="1024" viewBox="0 0 965.0002 1024"><g id="uuid-863a2dbf-bc11-4684-be03-ec3a57d18874"><path id="uuid-524fc7a3-cd4f-4f9f-a0e2-f529186c4efe" d="M156,.15l730,159.85h79.0002v864H137.0002c-28.7188,0-52-23.2812-52-52v-217.7079L154.4662,2.4109l1.5338-2.2609Z" fill="#36697f"/><path id="uuid-5375c76c-04cb-4bb4-bce1-1cb3133f3960" d="M156,0h686.0002c28.6996,0,52,23.3004,52,52v668H156V0h0Z" fill="#37a5cc"/><polygon id="uuid-c6eecd34-a687-4064-aa24-284db9bb3ef5" points="0 814 156 720 156 0 0 94 0 814" fill="#7dc6dd"/></g><g id="uuid-a79d489d-bec2-4bca-9ebd-7f47c383b59b"><path d="M434.1978,855.9414v86.1855h-28.9443l-2.8076-10.3682c-9.2881,7.9922-21.6006,13.8242-37.3691,13.8242-30.0244,0-54.2168-20.7363-54.2168-54.001v-43.416c0-37.3691,22.8965-60.6973,64.1533-60.6973,33.0479,0,56.377,15.7676,58.7529,46.4404h-34.7764c-1.0801-11.2314-7.7764-19.4404-23.3291-19.4404-17.7119,0-27,9.5039-27,29.8086v47.7363c0,16.417,8.4238,26.3525,24.1924,26.3525,11.4482,0,19.8721-4.752,25.2725-11.0156l.2158-26.7842h-25.2725v-24.625h61.1289Z" fill="#fff"/><path d="M556.5391,913.3984v28.7285h-94.6099v-151.2021h37.8013v122.4736h56.8086Z" fill="#fff"/><path d="M732.2314,790.9248v151.2021h-35.8564v-97.6338l-25.2725,97.418v.2158h-35.6406l-26.7842-101.5215v101.5215h-32.4004v-151.2021h47.5205l30.457,121.3936,31.9688-120.9619-.2168-.4316h46.2246Z" fill="#fff"/></g><g id="uuid-8a0ce623-4ffd-4cf6-afe6-ddc9d899ef88"><path d="M687.457,332.6938v227.4331h-76.3809l-7.4102-27.3604c-24.5107,21.0898-57.001,36.4805-98.6113,36.4805-79.2314,0-143.0723-54.7207-143.0723-142.502v-114.5713c0-98.6113,60.4209-160.1719,169.292-160.1719,87.2109,0,148.7725,41.6104,155.042,122.5513h-91.7705c-2.8506-29.6401-20.5205-51.3008-61.5615-51.3008-46.7402,0-71.251,25.0806-71.251,78.6611v125.9717c0,43.3208,22.2305,69.541,63.8408,69.541,30.2109,0,52.4414-12.5405,66.6914-29.0703l.5703-70.6812h-66.6914v-64.981h161.3125Z" fill="#fff"/></g></svg>