<svg width="24" height="24" viewBox="0 0 24 24" fill="none" xmlns="http://www.w3.org/2000/svg">
<path id="Vector" d="M19.6959 0H4.30414C1.92703 0 0 1.92703 0 4.30414V19.6959C0 22.073 1.92703 24 4.30414 24H19.6959C22.073 24 24 22.073 24 19.6959V4.30414C24 1.92703 22.073 0 19.6959 0Z" fill="#49021F"/>
<path id="Vector_2" d="M5.78632 6.37059H8.85763V17.4339H5.78632V6.37059Z" fill="#FF3366"/>
<path id="Vector_3" d="M9.9079 13.1737C9.9079 10.1684 12.1536 8.66581 14.4818 8.66581C14.7956 8.66581 15.1258 8.69884 15.324 8.73184V6.02383H18.2136V16.8724C17.5201 17.2192 16.1496 17.5825 14.6635 17.5825C12.1205 17.5825 9.9079 16.1459 9.9079 13.1737ZM15.324 15.1717V11.1261C15.1258 11.0601 14.8782 11.0106 14.5479 11.0106C13.6397 11.0106 12.7976 11.539 12.7976 13.1241C12.7976 14.5772 13.5571 15.2377 14.5644 15.2377C14.7956 15.2377 15.1093 15.2212 15.324 15.1717Z" fill="#FF3366"/>
<defs>
<clipPath id="clip0_2136_7876">
<rect width="24" height="24" fill="white"/>
</clipPath>
</defs>
</svg>
