<svg xmlns="http://www.w3.org/2000/svg" width="965.0002" height="1024" viewBox="0 0 965.0002 1024"><g id="b2ffe98c-052d-42a1-8ae2-2c5d8d64b53a" data-name="container - PLUM"><path id="b1606444-d09a-4e03-92cd-05cfcf8cd668" data-name="back layer" d="M185,.15,915,160h79v864H166a52,52,0,0,1-52-52V754.2921L183.4662,2.4109Z" transform="translate(-29)" fill="#67074c"/><path id="b6277f6a-2e8c-41a6-909e-df3d66e398de" data-name="primary facade" d="M156,0H842a52,52,0,0,1,52,52V720a0,0,0,0,1,0,0H156a0,0,0,0,1,0,0V0A0,0,0,0,1,156,0Z" fill="#a90c7c"/><polygon id="f44da768-ee34-4b2d-ab87-177dc28b5bdf" data-name="flap" points="0 814 156 720 156 0 0 94 0 814" fill="#d44fae"/></g><g id="e0b5b562-924e-47e1-a8e9-cf6d89c185f0" data-name="product subscript template"><path d="M364.2915,790.9248h37.8008V942.127H364.2915Z" transform="translate(-29)" fill="#fff"/><path d="M610.8125,790.9248,587.7,942.127H536.5068l-18.792-118.37-19.4409,118.37H446.8657L422.4565,790.9248h37.585l14.4727,117.9375,20.3037-117.7217v-.2158h46.6577l20.0879,117.9375,14.2558-117.9375Z" transform="translate(-29)" fill="#fff"/><path d="M763.3691,942.127H720.8164l-29.16-57.0254L662.0635,942.127H620.5908l47.7363-79.9219-42.7685-71.28h41.2568l25.4883,48.169h.2168l26.1357-48.169h39.961l-42.9844,68.041Z" transform="translate(-29)" fill="#fff"/></g><g id="a22ff5e6-b123-4522-8257-2a56e298027c" data-name="product initial-i *EXCEPTION*"><path d="M603.8809,232.3726V488.3062h51.3007V560.127H453.3984V488.3062H504.13V232.3726H453.3984V161.1221H655.1816v71.2505Z" transform="translate(-29)" fill="#fff"/></g></svg>