<svg xmlns="http://www.w3.org/2000/svg" width="965.0002" height="1024" viewBox="0 0 965.0002 1024"><g id="ae023930-2adb-4c11-a299-9f8c909804f0" data-name="LIGHT BLUE"><path id="f8403b29-d9de-4f96-a669-adb52d2afea9" data-name="back layer" d="M185,.15,915,160h79v864H166a52,52,0,0,1-52-52V754.2921L183.4662,2.4109Z" transform="translate(-29)" fill="#36697f"/><path id="aab2389f-7e5b-4d83-a6a4-572f1f0f7626" data-name="primary facade" d="M156,0H842a52,52,0,0,1,52,52V720a0,0,0,0,1,0,0H156a0,0,0,0,1,0,0V0A0,0,0,0,1,156,0Z" fill="#37a5cc"/><polygon id="f1b166a7-a132-44c1-9312-38de742f723c" data-name="flap" points="0 814 156 720 156 0 0 94 0 814" fill="#7dc6dd"/></g><g id="f3791cbe-ead3-4eaf-9052-a50285b81718" data-name="product subscript template"><path d="M364.603,887.4785V845.5732c0-34.5605,21.8164-58.1044,61.5616-58.1044,34.7763,0,56.5927,16.416,57.6728,48.1679H449.06c-.8633-13.1758-7.9913-20.9512-22.4639-20.9512-15.12,0-23.7608,9.9356-23.7608,26.1358v51.4092c0,16.2,8.4249,26.1357,23.545,26.1357,15.5517,0,22.248-7.9922,22.8965-22.4639h35.208c-2.16,33.9122-22.8965,49.6807-59.1846,49.6807C387.7153,945.583,364.603,922.0391,364.603,887.4785Z" transform="translate(-29)" fill="#fff"/><path d="M626.3105,919.4463V942.127c-3.8886,2.16-9.288,3.24-15.12,3.24-13.1767,0-23.5449-3.8887-31.7529-20.9522L561.293,887.6943H544.6611V942.127H506.86V790.9248h57.2417c32.832,0,54.8642,15.7686,54.8642,41.04v13.6084c0,14.9043-9.2881,26.5684-23.9756,33.9131l16.8477,31.752c2.8086,5.6162,6.4805,8.208,12.7441,8.208Zm-81.6494-56.5928h16.416c12.0967,0,20.0889-6.2637,20.0889-17.9277V834.125c0-11.4473-8.208-17.28-20.0889-17.28h-16.416Z" transform="translate(-29)" fill="#fff"/><path d="M686.5928,818.1406v33.9131h51.8408v27H686.5928v35.209H742.97V942.127H648.792V790.9248H742.97v27.2158Z" transform="translate(-29)" fill="#fff"/></g><g id="ac25b1e0-b690-4993-8b48-ade205ca5f38" data-name="product initial template"><path d="M759.7764,161.1221V560.127H665.1553V302.4834L598.4648,559.5566v.57H504.4131L433.7324,292.2236V560.127h-85.501V161.1221H473.6328l80.3711,320.3437,84.3613-319.2041-.57-1.14Z" transform="translate(-29)" fill="#fff"/></g></svg>