<svg id="a233fe05-0854-45d3-bc9c-b92af608c6c0" data-name="collection icon- M&amp;E" xmlns="http://www.w3.org/2000/svg" width="340.4508mm" height="310.4427mm" viewBox="0 0 965.0574 879.9952"><path d="M155.9948.1993,886.9118,162h78.0911V879.9991H137.2085a52.2064,52.2064,0,0,1-52.21-52.0065V751.7647L155.3213,1.6277Z" transform="translate(0.0545 -0.0039)" fill="#36697f"/><path id="e16b8685-3f9b-4162-bade-a3bc4c424209" data-name="primary facade" d="M894.0039,720.0007h-738.43V1.1621l.4252-1.1582H842.0009A51.8375,51.8375,0,0,1,894.0039,51.81Z" transform="translate(0.0545 -0.0039)" fill="#37a5cc"/><polygon id="bfacc576-2450-4466-8a87-c9e74ead5b41" data-name="flap" points="0 814.135 155.998 719.942 156.053 0 0.055 93.996 0 814.135" fill="#7dc6dd"/><path d="M842.0366.0039H484.5859L155.9988,203.6673V527.4538L491.7867,318.7177H826.1275a19.5324,19.5324,0,0,1,19.5458,19.5457c0,9.2591-4.1149,13.3741-9.2583,16.4606L519.8423,544.4776c-20.5742,12.3456-27.7764,37.0354-27.7764,55.5528v119.97h401.938V51.6057A51.6426,51.6426,0,0,0,842.0366.0039Z" transform="translate(0.0545 -0.0039)" fill="#ecf6fa"/><polygon points="156.053 203.663 0.055 300.484 0.055 624.46 156.053 527.45 156.053 203.663" fill="#d2eaf3"/></svg>