<svg xmlns="http://www.w3.org/2000/svg" width="340.4306mm" height="310.4444mm" viewBox="0 0 965 880"><g id="e3a1993b-ce5b-4779-b986-ce460cf660f6" data-name="COPPER"><path id="bae9df0b-51d2-49f8-9311-0a6faf4d17dc" data-name="back layer" d="M155.7735.4328l.2278-.3882L888.8725,162H965V880H137a52,52,0,0,1-52-52V757.6471Z" fill="#933c00"/><path id="e6aee65f-5a5f-4b2f-9d97-96d985a9d3a9" data-name="primary facade" d="M894,720H155.7735V.4328L156,0H842a52,52,0,0,1,52,52Z" fill="#ff6b00"/><polygon id="a783e1ad-5348-448d-adce-62879af110e2" data-name="flap" points="0 814 156 720 156 0 0 94 0 814" fill="#ff9548"/></g><g id="b034cf55-3825-4b3c-b516-639392279ef7" data-name="product initial template"><path d="M730.7764,161.1221V560.127H636.1553V302.4834L569.4648,559.5566v.57H475.4131L404.7324,292.2236V560.127h-85.501V161.1221H444.6328l80.3711,320.3437,84.3613-319.2041-.57-1.14Z" fill="#fff"/></g></svg>