<svg xmlns="http://www.w3.org/2000/svg" width="965.0002" height="1024" viewBox="0 0 965.0002 1024"><g id="ff70f91c-7ead-4204-837c-a114b8e648bc" data-name="container - LIGHT GREEN"><path id="f33f8c07-2ffa-4196-a981-7f7988b6df48" data-name="back layer" d="M185,.15,915,160h79v864H166a52,52,0,0,1-52-52V754.2921L183.4662,2.4109Z" transform="translate(-29)" fill="#4f6227"/><path id="a3eb00a2-288a-4e35-b22a-8a52b3947e17" data-name="primary facade" d="M156,0H842a52,52,0,0,1,52,52V720a0,0,0,0,1,0,0H156a0,0,0,0,1,0,0V0A0,0,0,0,1,156,0Z" fill="#88a943"/><polygon id="e5a09531-c174-43d5-8217-dcd06d49a6e9" data-name="flap" points="0 814 156 720 156 0 0 94 0 814" fill="#a7c36a"/></g><g id="e6de9a67-d3f9-4169-b095-c888833ee7d5" data-name="product subscript template"><path d="M486.3521,893.0938V901.95c0,23.7607-23.9766,40.1768-60.9131,40.1768H372.3022V790.9248h52.4893c34.7764,0,56.5928,14.04,56.5928,37.8v9.7207c0,15.12-11.4483,22.0322-19.44,24.625h-.2158C471.0161,865.23,486.3521,873.4375,486.3521,893.0938ZM410.103,815.7656V853.998h15.7686c11.0156,0,17.7119-4.9687,17.7119-14.9042v-7.7764c0-10.8-6.9121-15.5518-19.8721-15.5518Zm38.4483,76.2481c0-9.72-6.48-15.5518-20.9522-15.5518H410.103v40.8242h14.6885c14.4717,0,23.76-5.3994,23.76-17.9277Z" transform="translate(-29)" fill="#fff"/><path d="M604.72,913.3984V942.127H510.11V790.9248h37.8012V913.3984Z" transform="translate(-29)" fill="#fff"/><path d="M742.6123,851.19v27.8642c0,38.8809-23.7607,63.0733-68.6894,63.0733H624.458V790.9248h54.6494C721.4434,790.9248,742.6123,815.1172,742.6123,851.19Zm-37.8008-1.2959c0-21.169-8.6406-31.753-26.7842-31.753H662.2588v96.77h12.5283c20.0879,0,30.0244-10.8,30.0244-34.7764Z" transform="translate(-29)" fill="#fff"/></g><g id="b1f77fe0-fae3-47bc-8791-d694443b15bf" data-name="product initial template"><path d="M759.7764,161.1221V560.127H665.1553V302.4834L598.4648,559.5566v.57H504.4131L433.7324,292.2236V560.127h-85.501V161.1221H473.6328l80.3711,320.3437,84.3613-319.2041-.57-1.14Z" transform="translate(-29)" fill="#fff"/></g></svg>