<svg xmlns="http://www.w3.org/2000/svg" width="965.0002" height="1024" viewBox="0 0 965.0002 1024"><g id="f83da81f-87c7-4862-9b99-393082700279" data-name="container - DARK GREEN"><path id="a9219530-0f36-486c-bd21-55798060966d" data-name="back layer" d="M185,.15,915,160h79v864H166a52,52,0,0,1-52-52V754.2921L183.4662,2.4109Z" transform="translate(-29)" fill="#126328"/><path id="aea66589-bc7c-41ce-94e5-035a31ea40d5" data-name="primary facade" d="M156,0H842a52,52,0,0,1,52,52V720a0,0,0,0,1,0,0H156a0,0,0,0,1,0,0V0A0,0,0,0,1,156,0Z" fill="#038c4a"/><polygon id="e7906ae5-faf9-4ede-8095-6dcbd6838bb3" data-name="flap" points="0 814 156 720 156 0 0 94 0 814" fill="#53ad72"/></g><g id="ac486d0c-05b2-4c96-a742-008bd0b6f66a" data-name="product subscript template"><path d="M494.8853,790.9248V942.127H459.0288V844.4932l-25.2725,97.4179v.2159H398.1157L371.3315,840.6055V942.127h-32.4V790.9248h47.5205l30.457,121.3936,31.9687-120.962-.2168-.4316Z" transform="translate(-29)" fill="#fff"/><path d="M640.2314,893.0938V901.95c0,23.7607-23.9765,40.1768-60.913,40.1768H526.1816V790.9248h52.4893c34.7764,0,56.5928,14.04,56.5928,37.8v9.7207c0,15.12-11.4483,22.0322-19.44,24.625h-.2158C624.8955,865.23,640.2314,873.4375,640.2314,893.0938Zm-76.249-77.3282V853.998H579.751c11.0156,0,17.7119-4.9687,17.7119-14.9042v-7.7764c0-10.8-6.9121-15.5518-19.8721-15.5518Zm38.4483,76.2481c0-9.72-6.48-15.5518-20.9522-15.5518H563.9824v40.8242h14.6885c14.4717,0,23.76-5.3994,23.76-17.9277Z" transform="translate(-29)" fill="#fff"/><path d="M788.7305,942.127H746.1777l-29.16-57.0254L687.4248,942.127H645.9521l47.7364-79.9219-42.7686-71.28h41.2569l25.4882,48.169h.2168l26.1358-48.169h39.9609l-42.9844,68.041Z" transform="translate(-29)" fill="#fff"/></g><g id="ae4062ab-a27a-4fc4-a2b2-b330880b1dd4" data-name="product initial template"><path d="M759.7764,161.1221V560.127H665.1553V302.4834L598.4648,559.5566v.57H504.4131L433.7324,292.2236V560.127h-85.501V161.1221H473.6328l80.3711,320.3437,84.3613-319.2041-.57-1.14Z" transform="translate(-29)" fill="#fff"/></g></svg>