<svg xmlns="http://www.w3.org/2000/svg" width="965.0002" height="1024" viewBox="0 0 965.0002 1024"><g id="b8440503-d832-4c5f-86f9-626e70a8a56f" data-name="container - BRASS"><path id="ad3c2b51-3486-42ab-982c-f359f9dc259a" data-name="back layer" d="M185,.15,915,160h79v864H166a52,52,0,0,1-52-52V754.2921L183.4662,2.4109Z" transform="translate(-29)" fill="#705a01"/><path id="e3d99347-71f0-4f4f-a491-bc8a0cb30b97" data-name="primary facade" d="M156,0H842a52,52,0,0,1,52,52V720a0,0,0,0,1,0,0H156a0,0,0,0,1,0,0V0A0,0,0,0,1,156,0Z" fill="#dbae03"/><polygon id="f54d137f-7b34-43f6-94e9-bfa9f5e50844" data-name="flap" points="0 814 156 720 156 0 0 94 0 814" fill="#eacd5d"/></g><g id="af6f91dc-fbba-44dd-8a98-72046848bb38" data-name="product subscript template"><path d="M485.8872,790.9248V942.127H445.063l-49.249-104.33v104.33H363.6294V790.9248h44.2812l45.792,93.7451V790.9248Z" transform="translate(-29)" fill="#fff"/><path d="M507.68,894.8223h35.6411c.8633,12.0957,4.7519,23.3281,27.2158,23.3281,16.8486,0,22.0322-7.56,22.0322-14.6885v-4.5361c0-10.8-5.832-13.3916-26.3525-19.8721l-20.9522-6.9121c-22.68-7.1279-32.6167-19.2236-32.6167-38.0166v-5.4c0-19.8711,16.4166-41.2558,58.105-41.2558,33.9131,0,57.2412,15.3359,58.5371,46.44H594.5137c-1.08-11.6641-7.3438-20.7363-23.544-20.7363-16.417,0-20.7363,6.9121-20.7363,13.6083v3.0235c0,7.1289,4.9678,11.4492,22.8955,17.0644l20.52,6.6963c25.0567,7.9922,36.7207,19.8721,36.7207,41.2569v6.48c0,24.84-21.6006,44.28-59.833,44.28C532.5205,945.583,509.6235,927.8711,507.68,894.8223Z" transform="translate(-29)" fill="#fff"/><path d="M761.2207,818.1406H721.6924V942.127H683.8916V818.1406H643.9307V790.9248h117.29Z" transform="translate(-29)" fill="#fff"/></g><g id="a57e9452-9eaf-486e-9219-37757c76295e" data-name="product initial-i *EXCEPTION*"><path d="M603.8809,232.3726V488.3062h51.3007V560.127H453.3984V488.3062H504.13V232.3726H453.3984V161.1221H655.1816v71.2505Z" transform="translate(-29)" fill="#fff"/></g></svg>