<svg xmlns="http://www.w3.org/2000/svg" width="965.0002" height="1024" viewBox="0 0 965.0002 1024"><g id="a0056696-55e6-4b4a-9220-385a6bfbcf31" data-name="container - COPPER"><path id="bacf0e93-a3fb-43b4-ac90-89ae07025a8e" data-name="back layer" d="M185,.15,915,160h79v864H166a52,52,0,0,1-52-52V754.2921L183.4662,2.4109Z" transform="translate(-29)" fill="#933c00"/><path id="b7f2b840-20dc-479d-922c-40f80bf935b0" data-name="primary facade" d="M156,0H842a52,52,0,0,1,52,52V720a0,0,0,0,1,0,0H156a0,0,0,0,1,0,0V0A0,0,0,0,1,156,0Z" fill="#ff6b00"/><polygon id="b347eebe-5cec-4053-a83d-f9d2e76d32ba" data-name="flap" points="0 814 156 720 156 0 0 94 0 814" fill="#ff9548"/></g><g id="a4171096-c557-4fba-bf07-b7d8763b3ddb" data-name="product subscript template"><path d="M488.4585,790.9248V942.127H447.6343l-49.249-104.33v104.33H366.2007V790.9248h44.2812l45.792,93.7451V790.9248Z" transform="translate(-29)" fill="#fff"/><path d="M557.34,818.1406v36.0723h49.6807V880.998H557.34v61.129H519.5391V790.9248h96.5537v27.2158Z" transform="translate(-29)" fill="#fff"/><path d="M750.6582,893.0938V901.95c0,23.7607-23.9766,40.1768-60.9131,40.1768H636.6084V790.9248h52.4893c34.7763,0,56.5927,14.04,56.5927,37.8v9.7207c0,15.12-11.4482,22.0322-19.44,24.625h-.2158C735.3223,865.23,750.6582,873.4375,750.6582,893.0938Zm-76.249-77.3282V853.998h15.7685c11.0157,0,17.7119-4.9687,17.7119-14.9042v-7.7764c0-10.8-6.9121-15.5518-19.872-15.5518Zm38.4482,76.2481c0-9.72-6.48-15.5518-20.9521-15.5518H674.4092v40.8242h14.6885c14.4716,0,23.76-5.3994,23.76-17.9277Z" transform="translate(-29)" fill="#fff"/></g><g id="e4c7af37-a25f-4f73-924c-f80a02d3ebc4" data-name="product initial template"><path d="M715.6,161.1221V560.127H607.8682L477.9072,284.8135V560.127H392.9756V161.1221H509.8271L630.6689,408.5049V161.1221Z" transform="translate(-29)" fill="#fff"/></g></svg>