<svg id="b517a321-21b9-41f0-a145-91057b3a0b51" data-name="collection icon- Product Design Manufacturing" xmlns="http://www.w3.org/2000/svg" width="340.4512mm" height="310.4427mm" viewBox="0 0 965.0586 879.9952"><path d="M155.9962.1845,887.0454,162h77.9575V879.9991H137.3444c-28.7118-.0192-52.3456-23.2947-52.3456-52.0065V752.1212L155.5456,1.3537Z" transform="translate(0.0557 -0.0039)" fill="#933c00"/><path id="f7483450-b466-4119-a78b-78e733d92a1f" data-name="primary facade" d="M894.0039,720.0007H155.687V.5184l.3118-.5145H842.0009A51.8375,51.8375,0,0,1,894.0039,51.81Z" transform="translate(0.0557 -0.0039)" fill="#ff6b00"/><polygon id="a7a5b991-eea8-4786-8d9f-7b14c3b27aaa" data-name="flap" points="0 814.134 155.998 719.94 156.055 0 0.056 93.996 0 814.134" fill="#ff9548"/><path d="M842.0366.0039H484.5859L155.9988,203.6673V527.4538L491.7867,318.7177H826.1275a19.5324,19.5324,0,0,1,19.5458,19.5457c0,9.2591-4.1149,13.3741-9.2583,16.4606L519.8423,544.4776c-20.5742,12.3456-27.7764,37.0354-27.7764,55.5528v119.97h401.938V51.6057A51.6426,51.6426,0,0,0,842.0366.0039Z" transform="translate(0.0557 -0.0039)" fill="#fef1e7"/><polygon points="156.055 203.663 0.056 300.484 0.056 624.46 156.055 527.45 156.055 203.663" fill="#fcd1b1"/></svg>