<?xml version="1.0" encoding="UTF-8"?>
<svg id="Layer_2" data-name="Layer 2" xmlns="http://www.w3.org/2000/svg" viewBox="0 0 54 54">
  <defs>
    <style>
      .cls-1 {
        fill: #001e36;
      }

      .cls-2 {
        fill: #31a8ff;
      }
    </style>
  </defs>
  <g id="Layer_2-2" data-name="Layer 2">
    <g id="Surfaces">
      <g id="Photo_Surface" data-name="Photo Surface">
        <g id="Outline_no_shadow" data-name="Outline no shadow">
          <rect class="cls-1" width="54" height="54" rx="9.74" ry="9.74"/>
        </g>
      </g>
    </g>
    <g id="Live_Text" data-name="Live Text">
      <g id="Ps">
        <g>
          <path class="cls-2" d="M19.03,14.96c7.03,0,10.99,3.29,10.99,8.81,0,6.44-5.37,9.03-10.4,9.03h-3.4v6.96h-6.88V14.96h9.7-.01ZM16.22,20.84v6.07h3.03c2.11,0,3.59-.85,3.59-3,0-1.96-1.26-3.07-3.44-3.07h-3.18Z"/>
          <path class="cls-2" d="M31.72,38.53l.04-5.74c1.96,1.3,4.7,2.11,6.59,2.11,1.29,0,1.89-.37,1.89-1.04,0-.74-.81-1.04-2.37-1.52-3-.89-6.29-2.11-6.29-6.03s3.29-6.22,8.07-6.22c2.26,0,4.11.33,5.74,1.04l-.04,5.48c-1.29-.78-3.85-1.48-5.51-1.48-1.22,0-1.7.37-1.7.93,0,.67.59.85,2.37,1.41,3.44,1.04,6.33,2.15,6.33,6.18s-3.15,6.44-8.07,6.44c-2.59,0-5.03-.44-7.03-1.55h-.02Z"/>
        </g>
      </g>
    </g>
  </g>
</svg>