<svg xmlns="http://www.w3.org/2000/svg" width="965.0002" height="1024" viewBox="0 0 965.0002 1024"><g id="ad58c696-830f-4814-b49e-7eef7134e620" data-name="container - COPPER"><path id="ed3ac96e-54a5-40c1-b097-b81bc9d1470e" data-name="back layer" d="M185,.15,915,160h79v864H166a52,52,0,0,1-52-52V754.2921L183.4662,2.4109Z" transform="translate(-29)" fill="#933c00"/><path id="b10aae8f-2f8e-41bd-8f9a-3c7bba748015" data-name="primary facade" d="M156,0H842a52,52,0,0,1,52,52V720a0,0,0,0,1,0,0H156a0,0,0,0,1,0,0V0A0,0,0,0,1,156,0Z" fill="#ff6b00"/><polygon id="a4a390ed-5000-461c-80d8-828867206108" data-name="flap" points="0 814 156 720 156 0 0 94 0 814" fill="#ff9548"/></g><g id="b5757a0b-50d8-42de-a032-173e878d0c56" data-name="product subscript template"><path d="M543.0322,790.9248V942.127H507.1753V844.4932l-25.2725,97.4179v.2159H446.2622L419.478,840.6055V942.127h-32.4V790.9248h47.52l30.4571,121.3936,31.9687-120.962-.2168-.4316Z" transform="translate(-29)" fill="#fff"/><path d="M574.3281,790.9248h37.8008V942.127H574.3281Z" transform="translate(-29)" fill="#fff"/><path d="M737.5576,913.3984V942.127H642.9482V790.9248H680.749V913.3984Z" transform="translate(-29)" fill="#fff"/></g><g id="f5a639e4-3793-4a9c-85cc-5b76b0f950cc" data-name="product initial template"><path d="M718.4512,276.2632v38.7607c0,74.6709-63.2715,117.4214-156.752,117.4214H521.7979V560.127h-99.751V161.1221H570.8193C660.31,161.1221,718.4512,202.7324,718.4512,276.2632Zm-99.752,5.7c0-34.2007-21.66-50.1607-55.29-50.1607H521.7979V361.7646h34.77c37.6211,0,62.1308-15.3906,62.1308-54.1508Z" transform="translate(-29)" fill="#fff"/></g></svg>