<svg xmlns="http://www.w3.org/2000/svg" width="965.0002" height="1024" viewBox="0 0 965.0002 1024"><g id="af354c73-229a-4219-8111-94df3fe358cd" data-name="container - BRASS"><path id="be79024b-4c4c-4736-88eb-64d61d39aa8f" data-name="back layer" d="M185,.15,915,160h79v864H166a52,52,0,0,1-52-52V754.2921L183.4662,2.4109Z" transform="translate(-29)" fill="#705a01"/><path id="a4f90bdc-62b8-4ec9-97a6-b5f3c11ad787" data-name="primary facade" d="M156,0H842a52,52,0,0,1,52,52V720a0,0,0,0,1,0,0H156a0,0,0,0,1,0,0V0A0,0,0,0,1,156,0Z" fill="#dbae03"/><polygon id="ba62e43a-d3e5-47a3-a6f9-02a884b98084" data-name="flap" points="0 814 156 720 156 0 0 94 0 814" fill="#eacd5d"/></g><g id="f5ef38ae-e7dd-4ff5-97ea-bf37f555174e" data-name="product subscript template"><path d="M348.2075,894.8223h35.6406c.8633,12.0957,4.752,23.3281,27.2159,23.3281,16.8486,0,22.0322-7.56,22.0322-14.6885v-4.5361c0-10.8-5.832-13.3916-26.3525-19.8721l-20.9522-6.9121c-22.68-7.1279-32.6162-19.2236-32.6162-38.0166v-5.4c0-19.8711,16.416-41.2558,58.1045-41.2558,33.9131,0,57.2412,15.3359,58.5371,46.44H435.0405c-1.08-11.6641-7.3437-20.7363-23.5439-20.7363-16.417,0-20.7363,6.9121-20.7363,13.6083v3.0235c0,7.1289,4.9677,11.4492,22.8955,17.0644l20.5205,6.6963c25.0566,7.9922,36.7207,19.8721,36.7207,41.2569v6.48c0,24.84-21.6006,44.28-59.833,44.28C373.0474,945.583,350.1509,927.8711,348.2075,894.8223Z" transform="translate(-29)" fill="#fff"/><path d="M616.502,942.127H578.7012V879.4863h-46.44V942.127H494.46V790.9248h37.8012v59.4014h46.44V790.9248H616.502Z" transform="translate(-29)" fill="#fff"/><path d="M760.0127,834.5566v14.6895c0,28.2959-23.9766,44.4961-59.4014,44.4961h-15.12V942.127H647.69V790.9248h56.377C737.98,790.9248,760.0127,806.6934,760.0127,834.5566Zm-37.8008,2.16c0-12.96-8.208-19.0078-20.9521-19.0078H685.4912v49.249H698.667c14.2568,0,23.5449-5.833,23.5449-20.52Z" transform="translate(-29)" fill="#fff"/></g><g id="a0c67675-72b5-41a0-a754-e25c5cc433c7" data-name="product initial template"><path d="M718.4512,276.2632v38.7607c0,74.6709-63.2715,117.4214-156.752,117.4214H521.7979V560.127h-99.751V161.1221H570.8193C660.31,161.1221,718.4512,202.7324,718.4512,276.2632Zm-99.752,5.7c0-34.2007-21.66-50.1607-55.29-50.1607H521.7979V361.7646h34.77c37.6211,0,62.1308-15.3906,62.1308-54.1508Z" transform="translate(-29)" fill="#fff"/></g></svg>