<?xml version="1.0" encoding="UTF-8"?>
<svg id="b" data-name="Layer 2" xmlns="http://www.w3.org/2000/svg" width="54" height="54" viewBox="0 0 54 54">
  <g id="c" data-name="Surfaces">
    <g id="d" data-name="DVA">
      <g id="e" data-name="no shadow">
        <rect width="54" height="54" rx="9.73519" ry="9.73519" fill="#00005b"/>
      </g>
    </g>
  </g>
  <g id="f" data-name="Outlined Mnemonics &amp;amp; Logos">
    <g id="g" data-name="Pr">
      <g>
        <path d="M20.23604,14.96143c7.03076,0,10.98975,3.29321,10.98975,8.80664,0,6.43848-5.36523,9.02856-10.39746,9.02856h-3.4043v6.95654h-6.88281V14.96143h9.69482ZM17.42403,20.84497v6.06836h3.03418c2.10889,0,3.58887-.85107,3.58887-2.99731,0-1.96118-1.25781-3.07104-3.44141-3.07104h-3.18164Z" fill="#99f"/>
        <path d="M41.12911,20.10474c1.51709,0,2.73828.18506,3.29346.37012v5.03223c-.44385-.11084-1.29541-.18481-1.99854-.18481-1.36914,0-2.146.11084-2.84863.36987v14.06104h-6.47559v-18.02026c2.33105-1.03613,4.66211-1.62817,8.0293-1.62817Z" fill="#99f"/>
      </g>
    </g>
  </g>
</svg>