<svg xmlns="http://www.w3.org/2000/svg" width="965.0002" height="1024" viewBox="0 0 965.0002 1024"><g id="a2897921-8e64-4bab-96aa-0867faec3744" data-name="container - PLUM"><path id="b75c9c52-d684-4761-8b2d-56ce8ba3f186" data-name="back layer" d="M185,.15,915,160h79v864H166a52,52,0,0,1-52-52V754.2921L183.4662,2.4109Z" transform="translate(-29)" fill="#67074c"/><path id="f5701916-fed2-4dbb-84d0-11e5231345f9" data-name="primary facade" d="M156,0H842a52,52,0,0,1,52,52V720a0,0,0,0,1,0,0H156a0,0,0,0,1,0,0V0A0,0,0,0,1,156,0Z" fill="#a90c7c"/><polygon id="fe1d03c3-3691-4223-8d3e-4422859a44ce" data-name="flap" points="0 814 156 720 156 0 0 94 0 814" fill="#d44fae"/></g><g id="ada06fe6-cf05-4677-9d41-f45088d357d3" data-name="product subscript template"><path d="M469.9907,834.5566v14.6895c0,28.2959-23.9765,44.4961-59.4013,44.4961h-15.12V942.127H357.6685V790.9248h56.3769C447.9575,790.9248,469.9907,806.6934,469.9907,834.5566Zm-37.8008,2.16c0-12.96-8.208-19.0078-20.9521-19.0078H395.4692v49.249H408.645c14.2569,0,23.5449-5.833,23.5449-20.52Z" transform="translate(-29)" fill="#fff"/><path d="M611.2324,919.4463V942.127c-3.8886,2.16-9.2881,3.24-15.12,3.24-13.1768,0-23.5449-3.8887-31.7529-20.9522l-18.1446-36.7207H529.583V942.127H491.7817V790.9248h57.2417c32.8321,0,54.8643,15.7686,54.8643,41.04v13.6084c0,14.9043-9.2881,26.5684-23.9756,33.9131l16.8477,31.752c2.8086,5.6162,6.48,8.208,12.7441,8.208ZM529.583,862.8535h16.416c12.0967,0,20.0889-6.2637,20.0889-17.9277V834.125c0-11.4473-8.208-17.28-20.0889-17.28H529.583Z" transform="translate(-29)" fill="#fff"/><path d="M757.2461,849.2461v34.7754c0,36.5049-22.4649,61.5615-65.4492,61.5615-42.1211,0-65.2334-25.0566-65.2334-61.5615V849.2461c0-36.7207,22.8965-61.7773,65.2334-61.7773C734.7812,787.4688,757.2461,812.5254,757.2461,849.2461Zm-92.8818-.2168v34.7773c0,22.8955,9.288,34.7764,27.4326,34.7764S719.23,906.7021,719.23,883.8066V849.0293c0-22.68-9.2891-34.5605-27.4326-34.5605S664.3643,826.35,664.3643,849.0293Z" transform="translate(-29)" fill="#fff"/></g><g id="bc1b356f-a695-4ceb-9cf5-788fcd602fad" data-name="product initial template"><path d="M725.8633,500.2764V560.127c-10.26,5.7-24.51,8.55-39.9,8.55-34.77,0-62.1309-10.26-83.791-55.29L554.291,416.4854H510.4V560.127h-99.751V161.1221H561.7012c86.6416,0,144.7822,41.61,144.7822,108.3012v35.91c0,39.3306-24.5107,70.1108-63.27,89.4912l44.46,83.791c7.41,14.82,17.1005,21.6607,33.6308,21.6607ZM510.4,350.9341h43.3213c31.92,0,53.0107-16.53,53.0107-47.3106v-28.5c0-30.21-21.6611-45.6-53.0107-45.6H510.4Z" transform="translate(-29)" fill="#fff"/></g></svg>