<svg xmlns="http://www.w3.org/2000/svg" width="965.0002" height="1024" viewBox="0 0 965.0002 1024"><g id="b4b856d6-8c41-4c48-90f5-2e81310bd50c" data-name="container - BLUE"><path id="ab3ab6cc-d598-4351-922a-8a15cbd81ad1" data-name="back layer" d="M185,.15,915,160h79v864H166a52,52,0,0,1-52-52V754.2921L183.4662,2.4109Z" transform="translate(-29)" fill="#0c3d91"/><path id="a783c3ed-d554-40c9-a3f5-736630213dca" data-name="primary facade" d="M156,0H842a52,52,0,0,1,52,52V720a0,0,0,0,1,0,0H156a0,0,0,0,1,0,0V0A0,0,0,0,1,156,0Z" fill="#186bff"/><polygon id="a41a3cb1-b272-4b1a-a5df-e7e87e2cb23f" data-name="flap" points="0 814 156 720 156 0 0 94 0 814" fill="#679ae7"/></g><g id="a9c62665-ea0e-43e5-b1b5-906f0e1dfc98" data-name="product subscript template"><path d="M556.1084,913.3984V942.127h-94.61V790.9248h37.8008V913.3984Z" transform="translate(-29)" fill="#fff"/><path d="M663.3506,818.1406H623.8223V942.127H586.0215V818.1406h-39.961V790.9248h117.29Z" transform="translate(-29)" fill="#fff"/></g><g id="b4e332a1-7593-4be2-9b72-669ec7d226be" data-name="product initial template"><path d="M725.8633,500.2764V560.127c-10.26,5.7-24.51,8.55-39.9,8.55-34.77,0-62.1309-10.26-83.791-55.29L554.291,416.4854H510.4V560.127h-99.751V161.1221H561.7012c86.6416,0,144.7822,41.61,144.7822,108.3012v35.91c0,39.3306-24.5107,70.1108-63.27,89.4912l44.46,83.791c7.41,14.82,17.1005,21.6607,33.6308,21.6607ZM510.4,350.9341h43.3213c31.92,0,53.0107-16.53,53.0107-47.3106v-28.5c0-30.21-21.6611-45.6-53.0107-45.6H510.4Z" transform="translate(-29)" fill="#fff"/></g></svg>