<svg xmlns="http://www.w3.org/2000/svg" width="965.0002" height="1024" viewBox="0 0 965.0002 1024"><g id="ad52a7ec-d690-4a08-b2a6-36a9e81e2168" data-name="container - RED"><path id="b4eb2675-cbf6-43a3-b3b9-94787a44d3ce" data-name="back layer" d="M185,.15,915,160h79v864H166a52,52,0,0,1-52-52V754.2921L183.4662,2.4109Z" transform="translate(-29)" fill="#78082a"/><path id="ec1c4303-90f8-46dc-825f-51adc9956d2e" data-name="primary facade" d="M156,0H842a52,52,0,0,1,52,52V720a0,0,0,0,1,0,0H156a0,0,0,0,1,0,0V0A0,0,0,0,1,156,0Z" fill="#e51050"/><polygon id="b8243385-72d3-44bc-a056-27af1505ef58" data-name="flap" points="0 814 156 720 156 0 0 94 0 814" fill="#e85984"/></g><g id="ac45de9e-fb8f-4c6e-9841-43c6b6777291" data-name="product subscript template"><path d="M462.0073,818.1406H422.479V942.127H384.6782V818.1406H344.7173V790.9248h117.29Z" transform="translate(-29)" fill="#fff"/><path d="M603.8984,790.9248V942.127H563.0742l-49.249-104.33v104.33H481.64V790.9248h44.2818l45.792,93.7451V790.9248Z" transform="translate(-29)" fill="#fff"/><path d="M753.1328,851.19v27.8642c0,38.8809-23.7607,63.0733-68.6894,63.0733H634.9785V790.9248h54.6494C731.9639,790.9248,753.1328,815.1172,753.1328,851.19Zm-37.8008-1.2959c0-21.169-8.6406-31.753-26.7841-31.753H672.7793v96.77h12.5283c20.0879,0,30.0244-10.8,30.0244-34.7764Z" transform="translate(-29)" fill="#fff"/></g><g id="af785252-0597-4691-a2f7-8b293321b2ef" data-name="product initial template"><path d="M708.4746,232.9429H604.1631V560.127h-99.751V232.9429H398.9609V161.1221H708.4746Z" transform="translate(-29)" fill="#fff"/></g></svg>