<svg xmlns="http://www.w3.org/2000/svg" width="965.0002" height="1024" viewBox="0 0 965.0002 1024"><g id="aef3680c-310d-45d7-850f-a34bb91d651f" data-name="container - BLUE"><path id="b14880ec-bc70-450c-a913-4bf7f46f015b" data-name="back layer" d="M185,.15,915,160h79v864H166a52,52,0,0,1-52-52V754.2921L183.4662,2.4109Z" transform="translate(-29)" fill="#0c3d91"/><path id="bb423b26-bebb-4710-8ee5-a47397ef1d1b" data-name="primary facade" d="M156,0H842a52,52,0,0,1,52,52V720a0,0,0,0,1,0,0H156a0,0,0,0,1,0,0V0A0,0,0,0,1,156,0Z" fill="#186bff"/><polygon id="b5861537-a695-4168-b0af-b77acd0ac4cf" data-name="flap" points="0 814 156 720 156 0 0 94 0 814" fill="#679ae7"/></g><g id="bcef11e4-b510-49f0-a4e2-2e6c74943d6e" data-name="product subscript template"><path d="M469.7632,818.1406H430.2349V942.127H392.4341V818.1406h-39.961V790.9248h117.29Z" transform="translate(-29)" fill="#fff"/><path d="M608.8467,919.4463V942.127c-3.8887,2.16-9.2881,3.24-15.12,3.24-13.1768,0-23.545-3.8887-31.753-20.9522l-18.1445-36.7207H527.1973V942.127H489.396V790.9248h57.2417c32.832,0,54.8643,15.7686,54.8643,41.04v13.6084c0,14.9043-9.2881,26.5684-23.9756,33.9131l16.8476,31.752c2.8086,5.6162,6.4805,8.208,12.7442,8.208Zm-81.6494-56.5928h16.416c12.0967,0,20.0888-6.2637,20.0888-17.9277V834.125c0-11.4473-8.2089-17.28-20.0888-17.28h-16.416Z" transform="translate(-29)" fill="#fff"/><path d="M755.5293,919.4463l-.2158,22.6807c-3.6719,2.16-8.8565,3.24-14.2569,3.24-13.3916,0-21.8164-4.32-32.1845-18.5762l-32.4-44.7129-9.5039,12.0957V942.127H631.3271V790.9248h35.6407v60.0488l45.5771-60.0488H751.209l-50.1123,65.0166,39.7441,55.7295c3.8887,5.3994,7.3447,7.7754,11.8809,7.7754Z" transform="translate(-29)" fill="#fff"/></g><g id="a7f21c74-2e57-4a36-bbfa-be0243db748a" data-name="product initial template"><path d="M373.0273,161.1221H476.1982L558.85,482.0361l75.2412-320.914H734.9824L623.8311,560.127H491.0186Z" transform="translate(-29)" fill="#fff"/></g></svg>