<svg xmlns="http://www.w3.org/2000/svg" viewBox="0 0 640 420" width="640" height="420" role="img">
<defs>
<pattern id="g" width="40" height="40" patternUnits="userSpaceOnUse">
<path d="M40 0H0V40" fill="none" stroke="rgba(255,255,255,.05)" stroke-width="1"/>
</pattern>
<radialGradient id="glow" cx="50%" cy="45%" r="60%">
<stop offset="0%" stop-color="#34d399" stop-opacity=".18"/>
<stop offset="100%" stop-color="#34d399" stop-opacity="0"/>
</radialGradient>
<linearGradient id="fade" x1="0" y1="0" x2="0" y2="1">
<stop offset="0%" stop-color="#34d399" stop-opacity=".55"/>
<stop offset="100%" stop-color="#34d399" stop-opacity=".08"/>
</linearGradient>
</defs>
<style>
.ln{fill:none;stroke:#34d399;stroke-opacity:.75;stroke-width:1.2;stroke-linejoin:round;stroke-linecap:round}
.ln2{fill:none;stroke:#34d399;stroke-opacity:.32;stroke-width:1;stroke-linejoin:round;stroke-linecap:round}
.cy{fill:none;stroke:#00c8f0;stroke-opacity:.7;stroke-width:1.2;stroke-linecap:round}
.fl{fill:#34d399;fill-opacity:.06}
.nd{fill:#34d399}
.dim{fill:none;stroke:rgba(255,255,255,.28);stroke-width:.8;stroke-dasharray:3 4}
.blink{animation:bk 3.2s ease-in-out infinite}
.blink:nth-of-type(2n){animation-delay:.5s}
.blink:nth-of-type(3n){animation-delay:1.1s}
.blink:nth-of-type(5n){animation-delay:1.7s}
@keyframes bk{0%,100%{opacity:.2}50%{opacity:1}}
.draw{stroke-dasharray:6 8;animation:dr 5s linear infinite}
@keyframes dr{to{stroke-dashoffset:-56}}
.scan{animation:sc 7s cubic-bezier(.6,0,.4,1) infinite}
@keyframes sc{0%{opacity:0;transform:translateY(-40px)}12%{opacity:1}88%{opacity:1}100%{opacity:0;transform:translateY(400px)}}
.spin{transform-box:fill-box;transform-origin:center;animation:sp 24s linear infinite}
.spinr{transform-box:fill-box;transform-origin:center;animation:sp 24s linear infinite reverse}
@keyframes sp{to{transform:rotate(360deg)}}
.float{animation:fo 9s ease-in-out infinite}
@keyframes fo{0%,100%{transform:translateY(0)}50%{transform:translateY(-9px)}}
.slide{animation:sl 8s cubic-bezier(.55,0,.45,1) infinite}
@keyframes sl{0%,6%{transform:translateX(0)}94%,100%{transform:translateX(var(--d,480px))}}
.comb{animation:cb 6s ease-in-out infinite}
@keyframes cb{0%,100%{opacity:.45}50%{opacity:.95}}
</style>
<rect width="640" height="420" fill="url(#g)"/>
<rect width="640" height="420" fill="url(#glow)"/>
<rect class="ln" x="56" y="92" width="384" height="248" rx="3" fill="rgba(255,255,255,.015)"/><text x="56" y="80" font-family="Manrope,sans-serif" font-size="9" fill="#34d399" fill-opacity=".85" letter-spacing="1" text-anchor="start">2000 × 1000 · S235 · t=4</text><polygon points="70,106 166,106 180,154 128,188 70,162" fill="#34d399" fill-opacity=".08" stroke="#34d399" stroke-opacity=".7" stroke-width="1.1" stroke-linejoin="round"/><text x="122.8" y="146.2" font-family="Manrope,sans-serif" font-size="8" fill="#fff" fill-opacity=".4" letter-spacing="1" text-anchor="middle">01</text><polygon points="188,104 270,104 270,180 224,180 188,144" fill="#34d399" fill-opacity=".08" stroke="#34d399" stroke-opacity=".7" stroke-width="1.1" stroke-linejoin="round"/><text x="228" y="145.4" font-family="Manrope,sans-serif" font-size="8" fill="#fff" fill-opacity=".4" letter-spacing="1" text-anchor="middle">02</text><polygon points="282,108 356,108 368,166 282,166" fill="#34d399" fill-opacity=".08" stroke="#34d399" stroke-opacity=".7" stroke-width="1.1" stroke-linejoin="round"/><text x="322" y="140" font-family="Manrope,sans-serif" font-size="8" fill="#fff" fill-opacity=".4" letter-spacing="1" text-anchor="middle">03</text><polygon points="376,106 428,106 428,196 376,196" fill="#34d399" fill-opacity=".08" stroke="#34d399" stroke-opacity=".7" stroke-width="1.1" stroke-linejoin="round"/><text x="402" y="154" font-family="Manrope,sans-serif" font-size="8" fill="#fff" fill-opacity=".4" letter-spacing="1" text-anchor="middle">04</text><polygon points="72,200 152,200 152,260 110,282 72,250" fill="#34d399" fill-opacity=".08" stroke="#34d399" stroke-opacity=".7" stroke-width="1.1" stroke-linejoin="round"/><text x="111.6" y="241.4" font-family="Manrope,sans-serif" font-size="8" fill="#fff" fill-opacity=".4" letter-spacing="1" text-anchor="middle">05</text><polygon points="164,192 252,192 264,248 206,278 164,242" fill="#34d399" fill-opacity=".08" stroke="#34d399" stroke-opacity=".7" stroke-width="1.1" stroke-linejoin="round"/><text x="210" y="233.4" font-family="Manrope,sans-serif" font-size="8" fill="#fff" fill-opacity=".4" letter-spacing="1" text-anchor="middle">06</text><polygon points="284,182 362,200 366,264 296,270" fill="#34d399" fill-opacity=".08" stroke="#34d399" stroke-opacity=".7" stroke-width="1.1" stroke-linejoin="round"/><text x="327" y="232" font-family="Manrope,sans-serif" font-size="8" fill="#fff" fill-opacity=".4" letter-spacing="1" text-anchor="middle">07</text><polygon points="374,210 428,210 428,288 374,288" fill="#34d399" fill-opacity=".08" stroke="#34d399" stroke-opacity=".7" stroke-width="1.1" stroke-linejoin="round"/><text x="401" y="252" font-family="Manrope,sans-serif" font-size="8" fill="#fff" fill-opacity=".4" letter-spacing="1" text-anchor="middle">08</text><polygon points="74,292 160,292 160,328 116,328 74,316" fill="#34d399" fill-opacity=".08" stroke="#34d399" stroke-opacity=".7" stroke-width="1.1" stroke-linejoin="round"/><text x="116.8" y="314.2" font-family="Manrope,sans-serif" font-size="8" fill="#fff" fill-opacity=".4" letter-spacing="1" text-anchor="middle">09</text><polygon points="176,290 262,302 254,328 176,328" fill="#34d399" fill-opacity=".08" stroke="#34d399" stroke-opacity=".7" stroke-width="1.1" stroke-linejoin="round"/><text x="217" y="315" font-family="Manrope,sans-serif" font-size="8" fill="#fff" fill-opacity=".4" letter-spacing="1" text-anchor="middle">10</text><polygon points="278,284 356,284 356,328 296,328" fill="#34d399" fill-opacity=".08" stroke="#34d399" stroke-opacity=".7" stroke-width="1.1" stroke-linejoin="round"/><text x="321.5" y="309" font-family="Manrope,sans-serif" font-size="8" fill="#fff" fill-opacity=".4" letter-spacing="1" text-anchor="middle">11</text><polygon points="370,300 428,300 428,328 370,328" fill="#34d399" fill-opacity=".08" stroke="#34d399" stroke-opacity=".7" stroke-width="1.1" stroke-linejoin="round"/><text x="399" y="317" font-family="Manrope,sans-serif" font-size="8" fill="#fff" fill-opacity=".4" letter-spacing="1" text-anchor="middle">12</text>
<polyline class="cy draw" points="116,140 228,140 320,136 402,150 112,240 212,234 320,230 400,248" stroke-opacity=".35" stroke-dasharray="3 5"/>
<rect class="ln2" x="468" y="120" width="136" height="136" rx="3" fill="rgba(255,255,255,.02)"/><text x="482" y="142" font-family="Manrope,sans-serif" font-size="9" fill="#34d399" fill-opacity=".85" letter-spacing="1" text-anchor="start">MALZEME VERIMI</text><circle cx="536" cy="196" r="38" fill="none" stroke="#34d399" stroke-opacity=".16" stroke-width="8"/><circle cx="536" cy="196" r="38" fill="none" stroke="#34d399" stroke-opacity=".8" stroke-width="8" stroke-linecap="round" stroke-dasharray="207.7 238.8" transform="rotate(-90 536 196)"/><text x="536" y="202" font-family="Manrope,sans-serif" font-size="16" fill="#34d399" fill-opacity=".85" letter-spacing="1" text-anchor="middle">%87</text><text x="468" y="282" font-family="Manrope,sans-serif" font-size="9" fill="#fff" fill-opacity=".45" letter-spacing="1" text-anchor="start">Fire  %13  →  ₺/parca ↓</text><text x="468" y="300" font-family="Manrope,sans-serif" font-size="9" fill="#fff" fill-opacity=".4" letter-spacing="1" text-anchor="start">12 parça · 1 tabaka · tek kurulum</text><text x="468" y="322" font-family="Manrope,sans-serif" font-size="9" fill="#34d399" fill-opacity=".85" letter-spacing="1" text-anchor="start">DXF → CAM → CNC</text><g class="scan"><line x1="40" y1="60" x2="600" y2="60" stroke="#00c8f0" stroke-opacity=".5" stroke-width="1"/></g>
</svg>
